<svg xmlns="http://www.w3.org/2000/svg" width="81" height="76" viewBox="0 0 81 76">
  <g fill="#EE13B6" fill-rule="evenodd">
    <path d="M6.69544973,73.4674115 C5.93004344,73.4674115 5.19654008,73.3159543 4.49491765,73.0130354 C3.79329521,72.7101164 3.23396824,72.2656764 2.81691994,71.679702 C2.39987164,71.0937277 2.14719322,70.4531382 2.05887711,69.7579143 C2.01962551,69.4599613 2,69.1322178 2,68.7746741 C2,68.4171304 2.04415739,67.9453785 2.1324735,67.3594041 C2.22078961,66.7734297 2.41459151,66.137806 2.71388499,65.452514 C3.01317848,64.7672219 3.36889081,64.1613931 3.78103266,63.6350093 C3.61421334,62.9695808 3.53080493,62.3563032 3.53080493,61.7951583 C3.53080493,61.2340133 3.59458783,60.7101204 3.72215554,60.2234637 C3.74178135,60.1440095 3.7736728,60.0869027 3.81783085,60.0521415 C3.86198891,60.0173803 3.89388036,60 3.91350616,60 C4.01163517,60 4.04107343,60.1216623 4.00182183,60.3649907 C3.96257023,60.608319 3.94294472,60.9559257 3.94294472,61.4078212 C3.94294472,61.8597167 4.00672762,62.4332678 4.13429533,63.1284916 C4.91932743,62.1055194 5.8417263,61.3606479 6.90151963,60.8938547 C7.71599042,60.5363111 8.56970002,60.3575419 9.46267403,60.3575419 C9.71780946,60.3575419 9.98275382,60.3724393 10.257515,60.4022346 C11.7687018,60.5710747 12.7892282,61.1570403 13.3191249,62.160149 C13.5350087,62.5772833 13.642949,63.0093088 13.642949,63.4562384 C13.642949,63.903168 13.5399151,64.3649883 13.3338442,64.8417132 C12.9020765,65.7951631 12.1612136,66.5003081 11.1112332,66.9571695 C10.434143,67.2551225 9.69328008,67.4040968 8.88862218,67.4040968 C8.54517064,67.4040968 8.19681787,67.3792678 7.84355343,67.3296089 C6.08704412,67.0713829 4.87026263,66.2271952 4.19317245,64.7970205 C3.95766282,65.1347006 3.71479716,65.700803 3.46456818,66.4953445 C3.2143392,67.289886 3.06960108,67.9006807 3.03034947,68.3277467 C2.99109787,68.7548128 2.97147236,69.1123511 2.97147236,69.4003724 C2.97147236,69.6883937 2.99109787,69.9863423 3.03034947,70.2942272 C3.09903978,70.8404745 3.30510761,71.3345726 3.64855915,71.7765363 C3.9920107,72.2185 4.45075694,72.5263803 5.02481166,72.7001862 C5.59886638,72.8739922 6.09686365,72.9608939 6.5188184,72.9608939 C7.88281166,72.9608939 9.045623,72.6728769 10.0072873,72.0968343 C10.5862485,71.7492223 11.0400884,71.3544404 11.3688205,70.9124767 C11.6975527,70.470513 12.0483587,69.8622013 12.4212489,69.0875233 C12.4801263,68.9584103 12.5414561,68.913718 12.6052399,68.9534451 C12.6690238,68.9931721 12.6665706,69.0875225 12.5978803,69.2364991 C12.22499,70.0012453 11.8790905,70.6070741 11.5601712,71.0540037 C11.2412519,71.5009333 10.8070375,71.9180614 10.257515,72.3054004 C9.15847012,73.0800784 7.97112689,73.4674115 6.69544973,73.4674115 Z M4.48755801,64.320298 C5.18427399,66.1179482 6.63656158,67.0167598 8.84446434,67.0167598 C10.0907028,67.0167598 11.0891505,66.6641873 11.8398375,65.9590317 C12.5905244,65.2538761 12.9658622,64.4543806 12.9658622,63.5605214 C12.9658622,62.6666622 12.5831648,61.9714488 11.8177585,61.4748603 C11.2486103,61.1073849 10.5469984,60.9236499 9.71290176,60.9236499 C8.87880516,60.9236499 8.03981469,61.1669746 7.19590519,61.6536313 C6.13611186,62.2793327 5.2333385,63.1682127 4.48755801,64.320298 Z M14.6765693,66.7486034 C15.3929111,66.7486034 15.7510767,67.2054579 15.7510767,68.1191806 C15.7510767,68.5363149 15.6431364,68.9832378 15.4272525,69.4599628 C15.1524913,70.1055277 14.7403556,70.6914933 14.1908332,71.2178771 C14.3184009,71.4661713 14.5490006,71.5903166 14.8826392,71.5903166 C15.1475876,71.5903166 15.3978128,71.4562397 15.6333224,71.1880819 C15.9277095,70.8801971 16.1386837,70.6095604 16.2662514,70.3761639 C16.3938191,70.1427673 16.4870403,69.9714469 16.5459177,69.8621974 C16.6047951,69.7529479 16.6808439,69.5965249 16.7740665,69.3929236 C16.867289,69.1893224 16.9237124,69.0651771 16.9433382,69.0204842 C16.962964,68.9757912 16.9973086,68.9534451 17.0463731,68.9534451 C17.1445021,68.9435133 17.1935659,68.978274 17.1935659,69.0577281 C17.1935659,69.0875234 17.1837532,69.1222841 17.1641274,69.1620112 L17.0758117,69.3705773 C17.0169343,69.509622 16.9727769,69.6089382 16.9433382,69.6685289 C16.9138995,69.7281195 16.8623825,69.8348844 16.7887858,69.9888268 C16.715189,70.1427692 16.6514061,70.2644316 16.5974351,70.3538175 C16.5434642,70.4432034 16.4698685,70.5623829 16.376646,70.7113594 C16.2834234,70.8603359 16.200015,70.9795154 16.1264182,71.0689013 C16.0528215,71.1582872 15.9620535,71.2576034 15.8541116,71.3668529 C15.7461697,71.4761023 15.6431358,71.5605211 15.5450068,71.6201117 C15.2996842,71.7690883 15.0690845,71.8435754 14.8532007,71.8435754 C14.4508717,71.8435754 14.1368636,71.7144644 13.9111669,71.4562384 C13.4597734,71.7939185 13.0427314,71.9627561 12.6600282,71.9627561 C11.9436865,71.9627561 11.5855209,71.5059015 11.5855209,70.5921788 C11.5855209,70.1750445 11.6934612,69.7281216 11.9093451,69.2513966 C12.2037321,68.5561728 12.6183209,67.9652414 13.1531241,67.4785847 C13.6879272,66.991928 14.1957372,66.7486034 14.6765693,66.7486034 Z M14.8384814,67.2104283 C14.5735331,67.2104283 14.259525,67.3891975 13.8964476,67.7467412 C13.5333703,68.1042848 13.2095494,68.5909342 12.9249752,69.2067039 C12.5815237,69.9217913 12.4098005,70.5077569 12.4098005,70.9646182 C12.4098005,71.4214796 12.5815237,71.6499069 12.9249752,71.6499069 C13.1702978,71.6499069 13.4450549,71.51583 13.7492548,71.2476723 C13.5922484,71.0192416 13.5137464,70.7759169 13.5137464,70.5176909 C13.5333722,70.0906248 13.7050954,69.877095 14.0289211,69.877095 C14.1564888,69.877095 14.2619759,69.9217873 14.3453856,70.0111732 C14.4287953,70.1005591 14.4704995,70.182495 14.4704995,70.2569832 C14.4704995,70.3314715 14.4606867,70.4084416 14.4410609,70.4878957 C14.6078802,70.2396015 14.7992289,69.887029 15.0151127,69.4301676 C15.2604353,68.9236474 15.3830947,68.4270664 15.3830947,67.9404097 C15.3830947,67.453753 15.2015588,67.2104283 14.8384814,67.2104283 Z M23.4819685,67.0763501 C22.2847946,69.231544 21.6862166,70.6219708 21.6862166,71.2476723 C21.6862166,71.5257618 21.7794378,71.6648045 21.9658829,71.6648045 C22.2013925,71.6648045 22.4712433,71.4860353 22.7754432,71.1284916 C23.2366495,70.5623808 23.6389725,69.8820648 23.982424,69.0875233 C24.0413014,68.9484785 24.1001779,68.8938546 24.1590553,68.9236499 C24.2179327,68.9534452 24.247371,68.9931717 24.247371,69.0428305 C24.247371,69.0924894 24.1983072,69.2166346 24.1001782,69.41527 L23.8646698,69.8919926 C23.8057924,70.0111738 23.6757734,70.239601 23.4746089,70.5772812 C23.2734444,70.9149613 23.1017212,71.1632518 22.9594342,71.3221601 C22.8171471,71.4810685 22.6356112,71.6374915 22.4148209,71.7914339 C22.1940306,71.9453763 21.9438054,72.0223464 21.6641377,72.0223464 C21.38447,72.0223464 21.1465107,71.8833037 20.9502527,71.6052142 C20.8619366,71.4761012 20.8177792,71.2998149 20.8177792,71.0763501 C20.8177792,70.8528853 20.866843,70.5822486 20.964972,70.264432 C21.063101,69.9466154 21.3329517,69.4301712 21.7745323,68.7150838 C21.8824742,68.536312 21.9364443,68.3947864 21.9364443,68.2905028 C21.9364443,68.1862192 21.8554891,68.1340782 21.6935762,68.1340782 C21.5316634,68.1340782 21.2397339,68.3327106 20.8177792,68.7299814 C20.3958244,69.1272521 19.9517973,69.6635596 19.4856845,70.3389199 C19.0195717,71.0142802 18.7423614,71.5555535 18.6540453,71.9627561 C18.487226,71.9627561 18.3645666,71.8932347 18.2860634,71.7541899 C18.2075601,71.6151452 18.1683091,71.4959657 18.1683091,71.396648 C18.1683091,70.9894455 18.4381599,70.2147791 18.9778694,69.0726257 C19.1545016,68.6952185 19.2477228,68.4394793 19.2575357,68.3054004 C19.2673486,68.1713215 19.2501763,68.1018001 19.2060182,68.0968343 C19.1618602,68.0918684 19.1005305,68.1092487 19.0220273,68.1489758 C18.845395,68.2383617 18.5755443,68.4568574 18.212467,68.8044693 C17.5255639,69.4401025 16.8484839,70.4084355 16.1812066,71.7094972 C16.1321421,71.8187467 16.0708124,71.8857851 15.9972156,71.9106145 C15.9236188,71.9354439 15.7788807,71.9528243 15.5629969,71.9627561 C15.3471131,71.9726878 15.2048281,71.9975169 15.1361378,72.0372439 C15.31277,71.689632 15.6218718,71.0391109 16.0634524,70.0856611 C16.8582973,68.3773968 17.3881861,67.3941664 17.6531344,67.1359404 C17.7708892,67.0167592 17.9327996,66.9571695 18.1388706,66.9571695 C18.1781222,66.9571695 18.2787029,66.9720669 18.4406158,67.0018622 C18.6025286,67.0316575 18.7227349,67.0366233 18.8012381,67.0167598 C18.4381607,67.2153952 17.8444891,68.1489674 17.0202054,69.8175047 C17.4814118,69.241462 17.8125922,68.8640605 18.0137567,68.6852886 C18.2149212,68.5065168 18.3645657,68.3724399 18.4626947,68.283054 C18.5608237,68.1936681 18.6368725,68.1241467 18.6908435,68.0744879 C18.7448145,68.0248291 18.8233165,67.9528248 18.926352,67.858473 C19.0293874,67.7641212 19.1078894,67.6945999 19.1618604,67.6499069 C19.2158314,67.6052139 19.2918802,67.5431413 19.3900092,67.4636872 C19.4881382,67.384233 19.5641871,67.332092 19.618158,67.3072626 C19.672129,67.2824331 19.7457246,67.2402238 19.8389472,67.1806331 C19.9321698,67.1210425 20.000859,67.0912477 20.0450171,67.0912477 C20.0891751,67.0912477 20.1505049,67.0788331 20.2290081,67.0540037 C20.3075113,67.0291743 20.3614814,67.036623 20.3909201,67.0763501 C20.5871782,67.1558042 20.6853057,67.2799495 20.6853057,67.4487896 C20.6853057,67.5977661 20.5184889,67.9801335 20.1848502,68.5959032 C19.8512116,69.2116728 19.635331,69.6188693 19.537202,69.8175047 C19.9689696,69.2712574 20.3811053,68.8218515 20.7736214,68.4692737 C21.1661374,68.1166959 21.62979,67.7914354 22.1645931,67.4934823 C22.6993963,67.1955292 23.0894532,67.0465549 23.3347758,67.0465549 C23.3936532,67.0465549 23.4427169,67.0564866 23.4819685,67.0763501 Z M27.9893385,67.9106145 C27.9893385,68.3476124 27.8764918,68.8292959 27.6507951,69.3556797 C27.4250984,69.8820635 27.1135435,70.3885761 26.716121,70.8752328 C26.3186985,71.3618895 25.8354203,71.6945987 25.2662721,71.8733706 C25.0503882,71.9329612 24.8026162,71.9627561 24.5229485,71.9627561 C24.2432808,71.9627561 23.9366323,71.8733715 23.6029936,71.6945996 L22.2046622,75.2253259 C22.0574687,75.5431425 21.9200901,75.7517065 21.7925224,75.8510242 C21.6649547,75.9503419 21.5422953,76 21.4245405,76 L21.2111109,76 C21.1865787,76 21.0982639,75.9851026 20.9461639,75.9553073 C20.7940639,75.925512 20.6787641,75.9155803 20.6002609,75.9255121 C20.8161447,75.716945 21.3632057,74.7262658 22.2414604,72.9534451 C23.119715,71.1806243 23.6177123,69.986347 23.7354671,69.3705773 C23.6275252,69.5294856 23.5244913,69.6139044 23.4263623,69.6238361 C23.3674849,69.6238361 23.3674849,69.5667293 23.4263623,69.452514 C23.4852397,69.3382986 23.5833672,69.1173201 23.7207478,68.7895717 C23.8973801,68.3625056 23.9856949,67.9677237 23.9856949,67.6052142 C23.9856949,67.2427046 23.9170056,67.0316577 23.779625,66.972067 C24.368399,66.8727493 24.7118454,66.8255742 24.8099744,66.83054 C24.9081034,66.8355059 24.9694332,66.8777153 24.9939654,66.9571695 C25.0184977,67.0366236 25.0307636,67.1260082 25.0307636,67.2253259 C25.0307636,67.8311638 24.893385,68.506514 24.6186238,69.2513966 L24.9130094,68.7746741 C25.2662738,68.1986315 25.5238586,67.8261958 25.6857715,67.6573557 C25.8476844,67.4885156 26.0218607,67.3147123 26.2083059,67.1359404 C26.49288,66.8578509 26.7676371,66.7188082 27.0325854,66.7188082 C27.1110886,66.7188082 27.1846843,66.7287398 27.2533746,66.7486034 C27.7440197,66.8777164 27.9893385,67.2650495 27.9893385,67.9106145 Z M27.2828132,67.7616387 C27.2828132,67.6027304 27.2509217,67.456239 27.1871379,67.3221601 C27.123354,67.1880813 27.0227733,67.1210428 26.8853927,67.1210428 C26.5419411,67.1210428 26.1420714,67.4438205 25.6857715,68.0893855 C25.2294716,68.7349505 24.5744702,69.8621893 23.7207478,71.4711359 C23.8483156,71.6002489 24.0249451,71.6648045 24.2506419,71.6648045 C24.4763386,71.6648045 24.7952531,71.4910011 25.2073949,71.1433892 C25.8648593,70.5872101 26.4143735,69.8969625 26.8559541,69.0726257 C27.1405282,68.5363102 27.2828132,68.0993189 27.2828132,67.7616387 Z M28.9199239,69.0875233 C28.910111,69.1272504 28.8659536,69.2638101 28.7874504,69.4972067 C28.7089472,69.7306033 28.6427111,69.9540647 28.5887401,70.1675978 C28.5347692,70.3811308 28.5077841,70.5946606 28.5077841,70.8081937 C28.5077841,71.0217267 28.5568479,71.2203591 28.6549769,71.4040968 C28.7531059,71.5878346 28.91011,71.679702 29.1259938,71.679702 C29.4792582,71.679702 29.8227046,71.4388603 30.1563433,70.9571695 C30.4899819,70.4754787 30.843241,69.8622011 31.2161313,69.1173184 C31.2946345,68.9782737 31.3682301,68.9236498 31.4369205,68.9534451 C31.485985,68.9931721 31.4957977,69.0453131 31.466359,69.1098696 C31.4369203,69.1744261 31.3755906,69.3134688 31.282368,69.5270019 C31.1891455,69.7405349 31.1204562,69.8895092 31.0762981,69.9739292 C31.0321401,70.0583493 30.9536381,70.2073236 30.8407897,70.4208566 C30.7279413,70.6343896 30.6298138,70.7932956 30.5464041,70.8975791 C30.4629945,71.0018627 30.3501478,71.1359396 30.2078607,71.2998138 C30.0655737,71.463688 29.9306483,71.5853503 29.8030806,71.6648045 C29.459629,71.8833034 29.1358082,71.9925512 28.8316082,71.9925512 C28.5274083,71.9925512 28.2919022,71.9255128 28.1250829,71.7914339 C27.9582636,71.657355 27.8576828,71.5133465 27.8233377,71.3594041 C27.7889925,71.2054617 27.7718202,71.0689019 27.7718202,70.9497207 C27.7718202,70.8305394 27.7767266,70.6765993 27.7865395,70.4878957 C27.8159782,70.1700791 27.8773079,69.8621989 27.9705304,69.5642458 C28.063753,69.2662927 28.11527,69.0974552 28.1250829,69.0577281 C28.3507796,68.2333913 28.6721473,67.3345797 29.0891956,66.3612663 C29.5062439,65.3879529 29.859503,64.6554959 30.1489836,64.1638734 C30.4384642,63.6722508 30.6666107,63.3370586 30.8334301,63.1582868 C31.1670687,62.8007431 31.4957959,62.6219739 31.8196217,62.6219739 C32.0453184,62.6219739 32.1974161,62.7858457 32.2759193,63.113594 C32.2857322,63.1731847 32.2906386,63.2476718 32.2906386,63.3370577 C32.2906386,63.6747379 32.1728855,64.1017975 31.9373759,64.6182495 C31.0934664,66.5152174 30.0876591,68.0049604 28.9199239,69.0875233 Z M29.0376781,68.6108007 C29.5381361,68.0943488 30.0336802,67.4438276 30.5243252,66.6592179 C31.0149703,65.8746081 31.375589,65.2067067 31.6061922,64.6554935 C31.8367953,64.1042803 31.9520952,63.7293616 31.9520952,63.5307263 C31.9520952,63.3320909 31.9177506,63.2327747 31.8490602,63.2327747 C31.7509312,63.2327747 31.5644889,63.4289242 31.2897277,63.8212291 C31.0149664,64.2135339 30.644535,64.918679 30.1784222,65.9366853 C29.7123094,66.9546916 29.3320652,67.8460545 29.0376781,68.6108007 Z M32.8385227,66.1675978 C32.7011421,66.286779 32.5490444,66.3463687 32.3822251,66.3463687 C32.2154058,66.3463687 32.0829336,66.286779 31.9848046,66.1675978 C31.8866756,66.0484165 31.8474246,65.904408 31.8670504,65.735568 C31.8964891,65.5667279 31.9798975,65.4227194 32.1172781,65.3035382 C32.2546587,65.1843569 32.4067564,65.1247672 32.5735757,65.1247672 C32.740395,65.1247672 32.8753204,65.1843569 32.9783559,65.3035382 C33.0813913,65.4227194 33.1181892,65.5667279 33.0887505,65.735568 C33.0593118,65.904408 32.9759034,66.0484165 32.8385227,66.1675978 Z M31.3960335,71.6350093 C31.5824786,71.6350093 31.7787337,71.5406589 31.9848046,71.3519553 C32.3478819,70.9844799 32.8090814,70.2346425 33.3684167,69.1024209 C33.4371071,68.9534443 33.5057963,68.908752 33.5744866,68.9683426 C33.5941124,68.9882062 33.6039252,69.0204839 33.6039252,69.0651769 C33.6039252,69.1098699 33.5646742,69.2191177 33.486171,69.3929236 C33.4076678,69.5667296 33.3365253,69.7231526 33.2727414,69.8621974 C33.2089576,70.0012422 33.0862982,70.2271865 32.9047595,70.5400372 C32.7232208,70.852888 32.5588572,71.0937298 32.4116637,71.2625698 C32.0093347,71.729363 31.6290905,71.9627561 31.2709196,71.9627561 C30.9127487,71.9627561 30.6551639,71.8535082 30.4981575,71.6350093 C30.3411511,71.4165104 30.2626491,71.1731857 30.2626491,70.9050279 C30.2626491,70.6368702 30.326432,70.3438874 30.4539997,70.0260708 L31.3960335,67.5977654 C31.4156593,67.5381747 31.425472,67.4587218 31.425472,67.3594041 C31.425472,67.2600864 31.3665955,67.1309753 31.2488407,66.972067 L32.058401,66.9571695 C32.2840977,66.9571695 32.4165699,66.9993788 32.4558215,67.0837989 C32.4950731,67.1682189 32.4656348,67.2998129 32.3675058,67.4785847 L31.1899636,70.264432 C31.0231443,70.6319075 30.9397359,70.9447535 30.9397359,71.2029795 C30.9397359,71.4910008 31.0918335,71.6350093 31.3960335,71.6350093 Z M39.9364857,67.0763501 C38.7393117,69.231544 38.1407337,70.6219708 38.1407337,71.2476723 C38.1407337,71.5257618 38.2339549,71.6648045 38.4204,71.6648045 C38.6559096,71.6648045 38.9257604,71.4860353 39.2299603,71.1284916 C39.6911667,70.5623808 40.0934896,69.8820648 40.4369411,69.0875233 C40.4958185,68.9484785 40.5546951,68.8938546 40.6135725,68.9236499 C40.6724499,68.9534452 40.7018881,68.9931717 40.7018881,69.0428305 C40.7018881,69.0924894 40.6528244,69.2166346 40.5546953,69.41527 L40.3191869,69.8919926 C40.2603095,70.0111738 40.1302905,70.239601 39.929126,70.5772812 C39.7279615,70.9149613 39.5562384,71.1632518 39.4139513,71.3221601 C39.2716642,71.4810685 39.0901283,71.6374915 38.869338,71.7914339 C38.6485477,71.9453763 38.3983225,72.0223464 38.1186548,72.0223464 C37.8389871,72.0223464 37.6010278,71.8833037 37.4047698,71.6052142 C37.3164537,71.4761012 37.2722963,71.2998149 37.2722963,71.0763501 C37.2722963,70.8528853 37.3213601,70.5822486 37.4194891,70.264432 C37.5176181,69.9466154 37.7874688,69.4301712 38.2290494,68.7150838 C38.3369913,68.536312 38.3909615,68.3947864 38.3909615,68.2905028 C38.3909615,68.1862192 38.3100062,68.1340782 38.1480934,68.1340782 C37.9861805,68.1340782 37.6942511,68.3327106 37.2722963,68.7299814 C36.8503416,69.1272521 36.4063144,69.6635596 35.9402016,70.3389199 C35.4740888,71.0142802 35.1968785,71.5555535 35.1085624,71.9627561 C34.9417431,71.9627561 34.8190837,71.8932347 34.7405805,71.7541899 C34.6620773,71.6151452 34.6228262,71.4959657 34.6228262,71.396648 C34.6228262,70.9894455 34.892677,70.2147791 35.4323865,69.0726257 C35.6090188,68.6952185 35.7022399,68.4394793 35.7120528,68.3054004 C35.7218657,68.1713215 35.7046934,68.1018001 35.6605354,68.0968343 C35.6163773,68.0918684 35.5550476,68.1092487 35.4765444,68.1489758 C35.2999122,68.2383617 35.0300614,68.4568574 34.6669841,68.8044693 C33.980081,69.4401025 33.303001,70.4084355 32.6357237,71.7094972 C32.5866592,71.8187467 32.5253295,71.8857851 32.4517327,71.9106145 C32.378136,71.9354439 32.2333978,71.9528243 32.017514,71.9627561 C31.8016302,71.9726878 31.6593453,71.9975169 31.5906549,72.0372439 C31.7672872,71.689632 32.0763889,71.0391109 32.5179695,70.0856611 C33.3128145,68.3773968 33.8427032,67.3941664 34.1076515,67.1359404 C34.2254063,67.0167592 34.3873168,66.9571695 34.5933877,66.9571695 C34.6326393,66.9571695 34.73322,66.9720669 34.8951329,67.0018622 C35.0570458,67.0316575 35.177252,67.0366233 35.2557552,67.0167598 C34.8926779,67.2153952 34.2990062,68.1489674 33.4747225,69.8175047 C33.9359289,69.241462 34.2671094,68.8640605 34.4682738,68.6852886 C34.6694383,68.5065168 34.8190828,68.3724399 34.9172118,68.283054 C35.0153408,68.1936681 35.0913897,68.1241467 35.1453606,68.0744879 C35.1993316,68.0248291 35.2778336,67.9528248 35.3808691,67.858473 C35.4839045,67.7641212 35.5624066,67.6945999 35.6163775,67.6499069 C35.6703485,67.6052139 35.7463973,67.5431413 35.8445263,67.4636872 C35.9426553,67.384233 36.0187042,67.332092 36.0726751,67.3072626 C36.1266461,67.2824331 36.2002418,67.2402238 36.2934643,67.1806331 C36.3866869,67.1210425 36.4553762,67.0912477 36.4995342,67.0912477 C36.5436923,67.0912477 36.605022,67.0788331 36.6835252,67.0540037 C36.7620284,67.0291743 36.8159985,67.036623 36.8454372,67.0763501 C37.0416953,67.1558042 37.1398228,67.2799495 37.1398228,67.4487896 C37.1398228,67.5977661 36.973006,67.9801335 36.6393674,68.5959032 C36.3057287,69.2116728 36.0898481,69.6188693 35.9917191,69.8175047 C36.4234868,69.2712574 36.8356224,68.8218515 37.2281385,68.4692737 C37.6206545,68.1166959 38.0843072,67.7914354 38.6191103,67.4934823 C39.1539134,67.1955292 39.5439704,67.0465549 39.7892929,67.0465549 C39.8481703,67.0465549 39.8972341,67.0564866 39.9364857,67.0763501 Z M40.6757204,69.6685289 C40.5383398,70.006209 40.4696505,70.3836106 40.4696505,70.8007449 C40.4696505,71.0788344 40.5309802,71.299813 40.6536415,71.4636872 C40.7763028,71.6275613 40.9504792,71.7094972 41.1761759,71.7094972 C42.0691499,71.7094972 42.8787021,70.8603437 43.6048568,69.1620112 C43.6735471,69.0031029 43.7569555,68.9335815 43.8550845,68.9534451 C43.8943361,68.9633768 43.9139616,68.9882059 43.9139616,69.027933 C43.9139616,69.06766 43.8035681,69.3283651 43.5827779,69.8100559 C43.3619876,70.2917467 43.1387474,70.6815628 42.9130507,70.9795158 C42.4125927,71.6747397 41.7943892,72.0223464 41.0584217,72.0223464 C40.6659056,72.0223464 40.332272,71.8932353 40.0575107,71.6350093 C39.7827495,71.3767833 39.645371,71.0242108 39.645371,70.5772812 C39.645371,70.1303516 39.7508581,69.6561167 39.9618354,69.1545624 C40.1728128,68.653008 40.4598359,68.1862219 40.8229132,67.7541899 C41.1859905,67.322158 41.6030326,67.0068291 42.0740518,66.8081937 C42.2997486,66.708876 42.5156292,66.6592179 42.7217001,66.6592179 C42.927771,66.6592179 43.1191197,66.7188076 43.2957519,66.8379888 C43.4625713,66.9770336 43.5459797,67.1309737 43.5459797,67.2998138 C43.5459797,67.8957199 43.1927205,68.4667881 42.4861916,69.0130354 C42.2703078,69.1818755 41.9661124,69.3333327 41.5735964,69.4674115 C41.1810803,69.6014904 40.8817913,69.6685289 40.6757204,69.6685289 Z M43.1485592,67.2849162 C43.1485592,67.0862808 43.0700571,66.9869646 42.9130507,66.9869646 C42.6382895,66.9869646 42.2212474,67.3296055 41.6619121,68.0148976 C41.3282734,68.4320319 41.0338908,68.898818 40.7787554,69.41527 C40.9455747,69.41527 41.1884404,69.3556803 41.5073596,69.2364991 C41.8262789,69.1173178 42.1034892,68.9584119 42.3389989,68.7597765 C42.8787084,68.2929834 43.1485592,67.8013682 43.1485592,67.2849162 Z M47.6853677,67.0763501 C46.4783808,69.2216122 45.8748965,70.6219707 45.8748965,71.2774674 C45.8748965,71.5356934 45.9681176,71.6648045 46.1545628,71.6648045 C46.6550207,71.6648045 47.3271944,70.8057193 48.1711039,69.0875233 C48.2299813,68.9484785 48.2888578,68.8938546 48.3477352,68.9236499 C48.4066126,68.9534452 48.4360509,68.9931717 48.4360509,69.0428305 C48.4360509,69.0924894 48.4164254,69.1520791 48.3771738,69.2216015 C47.85709,70.2843008 47.4179693,71.0167578 47.0597984,71.4189944 C46.7016275,71.8212311 46.3434619,72.0223464 45.9852911,72.0223464 C45.6271202,72.0223464 45.3548162,71.8833037 45.1683711,71.6052142 C45.0702421,71.4761012 45.0211783,71.2998149 45.0211783,71.0763501 C45.0211783,70.8528853 45.0702421,70.5822486 45.1683711,70.264432 C45.2665001,69.9466154 45.5363509,69.4301712 45.9779314,68.7150838 C46.0858733,68.536312 46.1398435,68.3947864 46.1398435,68.2905028 C46.1398435,68.1862192 46.0564351,68.1340782 45.8896157,68.1340782 C45.7227964,68.1340782 45.4038819,68.3575397 44.9328627,68.8044693 C44.2263338,69.459966 43.5443474,70.4431964 42.886883,71.7541899 C42.8280056,71.8535076 42.7617695,71.9155803 42.6881727,71.9404097 C42.614576,71.9652391 42.4698379,71.9826194 42.253954,71.9925512 C42.0380702,72.002483 41.8957853,72.027312 41.827095,72.0670391 C41.9841014,71.7492225 42.2932031,71.0987014 42.7544095,70.1154562 C43.5786932,68.3773966 44.1183947,67.3842346 44.3735301,67.1359404 C44.4912849,67.0167592 44.6531953,66.9571695 44.8592663,66.9571695 C44.8985179,66.9571695 44.9990986,66.9720669 45.1610115,67.0018622 C45.3229243,67.0316575 45.4431306,67.0366233 45.5216338,67.0167598 C45.1585564,67.2153952 44.5648848,68.1489674 43.7406011,69.8175047 C44.2018075,69.241462 44.6213027,68.7821246 44.9990994,68.4394786 C45.3768961,68.0968326 45.830736,67.7790207 46.3606326,67.4860335 C46.8905293,67.1930463 47.2781331,67.0465549 47.5234556,67.0465549 C47.582333,67.0465549 47.6363032,67.0564866 47.6853677,67.0763501 Z M47.394253,70.7709497 C47.394253,69.9466129 47.7867631,68.5661177 48.5717952,66.6294227 L47.8063928,66.6294227 C47.7573283,66.6294227 47.7254368,66.6021108 47.7107175,66.547486 C47.6959981,66.4928613 47.7009045,66.4382374 47.7254367,66.3836127 C47.749969,66.3289879 47.7867668,66.301676 47.8358313,66.301676 L48.718988,66.301676 C49.0722524,65.5170662 49.4009797,64.8615793 49.7051796,64.3351955 C50.0093796,63.8088118 50.2890431,63.4537564 50.5441785,63.2700186 C50.7993139,63.0862809 50.9833031,62.9944134 51.0961514,62.9944134 C51.2089998,62.9944134 51.289955,63.004345 51.3390195,63.0242086 C51.5647162,63.133458 51.6775629,63.3594024 51.6775629,63.7020484 C51.6775629,64.0446945 51.5647162,64.4593396 51.3390195,64.9459963 C51.1133228,65.432653 50.8925358,65.8845417 50.676652,66.301676 L51.3831774,66.301676 C51.4322419,66.301676 51.4641333,66.3289879 51.4788527,66.3836127 C51.493572,66.4382374 51.4886656,66.4928613 51.4641334,66.547486 C51.4396011,66.6021108 51.4028033,66.6294227 51.3537388,66.6294227 L50.5000207,66.6294227 C49.9603111,67.5530772 49.307763,68.3724359 48.5423567,69.0875233 L48.2038133,70.6070764 C48.1743746,70.7361893 48.1596554,70.8628175 48.1596554,70.9869646 C48.1596554,71.1111117 48.1940001,71.2377399 48.2626904,71.3668529 C48.3313807,71.4959659 48.439321,71.5605214 48.5865145,71.5605214 C48.7533338,71.5605214 48.9397761,71.5009317 49.1458471,71.3817505 C49.6168663,71.0242068 50.1369423,70.2743695 50.7060906,69.132216 C50.7453422,69.0428301 50.7919527,68.9882062 50.8459237,68.9683426 C50.8998947,68.9484791 50.9317861,68.9608936 50.941599,69.0055866 C50.9514119,69.0502796 50.9366928,69.1222838 50.8974412,69.2216015 C50.5736154,69.9068936 50.3184838,70.3935429 50.1320387,70.6815642 C49.602142,71.5456282 49.0379087,71.9776536 48.4393217,71.9776536 C48.1351218,71.9776536 47.8848966,71.86344 47.6886385,71.6350093 C47.4923805,71.4065786 47.394253,71.1185616 47.394253,70.7709497 Z M50.3528279,66.301676 C51.0004794,65.1297272 51.3243002,64.3153344 51.3243002,63.858473 C51.3243002,63.6598376 51.2899556,63.5605214 51.2212653,63.5605214 C51.1133234,63.5605214 50.9489598,63.7194273 50.7281695,64.0372439 C50.5073792,64.3550606 50.1369477,65.1098637 49.616864,66.301676 L50.3528279,66.301676 Z M50.1614773,66.6294227 L49.4696712,66.6294227 C49.3519164,66.9075123 49.086972,67.567965 48.6748302,68.6108007 C49.2047268,68.0546217 49.7002709,67.3941689 50.1614773,66.6294227 Z M72.2469362,63.2327747 C72.8553361,63.2327747 73.1595315,63.0838004 73.1595315,62.7858473 C73.1595315,62.6368708 73.2110484,62.5623836 73.3140839,62.5623836 C73.4171193,62.5623836 73.4686363,62.684046 73.4686363,62.9273743 C73.4686363,63.1707026 73.3312577,63.3569205 73.0564965,63.4860335 C72.7817353,63.6151465 72.5388696,63.679702 72.3278922,63.679702 C72.1169149,63.679702 71.9427385,63.6697704 71.8053579,63.6499069 C70.3628614,63.4612033 69.1264544,63.1433914 68.0960998,62.6964618 C67.3993838,63.80882 66.7762739,65.2886314 66.2267514,67.1359404 C66.0206805,67.8013689 65.7287511,68.5214114 65.3509544,69.2960894 C64.9731577,70.0707674 64.5659284,70.708874 64.1292543,71.2104283 C63.6925802,71.7119826 63.1896766,72.121662 62.6205283,72.4394786 C61.5018576,73.0552483 60.1820422,73.3631285 58.6610425,73.3631285 C57.4246169,73.3631285 56.266712,73.0552483 55.1872928,72.4394786 C54.1274995,71.8336407 53.509296,70.9000684 53.3326638,69.6387337 C53.313038,69.4698936 53.3032252,69.2191202 53.3032252,68.886406 C53.3032252,68.5536917 53.3988996,68.0794568 53.5902511,67.4636872 C53.7816027,66.8479175 54.1422214,66.3811313 54.6721181,66.0633147 C54.8880019,65.9342017 55.0499124,65.8696462 55.1578543,65.8696462 C55.3344865,65.8696462 55.4129885,65.954065 55.3933627,66.122905 C55.3541111,66.1725639 55.2535304,66.2544997 55.0916175,66.3687151 C54.9297046,66.4829304 54.7751538,66.6021099 54.6279603,66.726257 C54.4807667,66.8504041 54.3335754,67.0415878 54.1863819,67.2998138 C53.9312465,67.7368116 53.8036807,68.2284268 53.8036807,68.7746741 C53.8036807,70.026077 54.2256291,70.9894442 55.0695386,71.6648045 C55.5209321,72.0422117 56.0262889,72.3302287 56.5856242,72.5288641 C57.1449596,72.7274994 57.7042866,72.8268156 58.263622,72.8268156 L58.3372184,72.8268156 C60.3684889,72.7771568 62.0366571,72.0322853 63.3417729,70.5921788 C64.1660566,69.6883878 65.2945233,67.6474399 66.7272069,64.4692737 C67.217852,63.3767791 67.5318601,62.7361896 67.6692407,62.547486 C65.9323572,61.991307 64.3721293,61.7132216 62.9885102,61.7132216 C61.6048912,61.7132216 60.4813309,62.1353155 59.6177956,62.9795158 C58.9210796,63.6548761 58.5727268,64.3600212 58.5727268,65.0949721 C58.5727268,65.8994454 58.9210796,66.4109238 59.6177956,66.6294227 C59.8631181,66.6989451 60.0863582,66.7337058 60.2875227,66.7337058 C60.4886872,66.7337058 60.7192869,66.6964622 60.9793288,66.6219739 C61.2393707,66.5474857 61.4895959,66.3935455 61.730012,66.160149 C61.970428,65.9267524 62.151964,65.6958422 62.2746253,65.4674115 C62.3972865,65.2389809 62.4488035,65.0651775 62.4291777,64.9459963 L62.4291777,64.9162011 C62.5076809,64.8466787 62.5763702,64.8243326 62.6352476,64.849162 C62.694125,64.8739914 62.7235632,64.9360641 62.7235632,65.0353818 C62.6254342,65.8100597 62.2378304,66.3910595 61.5607403,66.7783985 C61.1485984,67.0266927 60.765901,67.150838 60.4126366,67.150838 C60.0593721,67.150838 59.745364,67.1011799 59.4706028,67.0018622 C58.6659449,66.7138409 58.1556817,66.162636 57.9397978,65.3482309 C57.8711075,65.0900049 57.8367629,64.8367486 57.8367629,64.5884544 C57.8367629,63.9925482 58.0182988,63.4115485 58.3813762,62.8454376 C59.0290277,61.8323972 60.0446477,61.2216025 61.4282668,61.0130354 C61.7422796,60.9633765 62.0415686,60.9385475 62.3261427,60.9385475 C62.6107169,60.9385475 62.9418973,60.9534449 63.319694,60.9832402 C63.6974907,61.0130355 64.1979412,61.1123517 64.8210604,61.2811918 C65.4441796,61.4500319 66.0820086,61.6461814 66.7345665,61.8696462 C67.3871245,62.093111 67.7771814,62.224705 67.9047492,62.264432 C68.3855813,61.6685259 68.7437468,61.3656115 68.9792565,61.3556797 C69.028321,61.3358162 69.0945571,61.3258845 69.1779667,61.3258845 C69.2613764,61.3258845 69.3276125,61.3954059 69.376677,61.5344507 C69.4257415,61.6734954 69.3913968,61.76288 69.273642,61.8026071 C69.2245775,61.8125388 69.1607946,61.807573 69.0822914,61.7877095 C69.023414,61.7479824 68.9032078,61.810055 68.7216691,61.9739292 C68.5401304,62.1378034 68.4052051,62.2743632 68.3168889,62.3836127 C69.2393017,62.6815657 70.0488539,62.8975785 70.7455698,63.0316574 C71.4422858,63.1657362 71.9427363,63.2327747 72.2469362,63.2327747 Z M69.9245611,66.1675978 C69.7871805,66.286779 69.6350828,66.3463687 69.4682635,66.3463687 C69.3014442,66.3463687 69.168972,66.286779 69.070843,66.1675978 C68.972714,66.0484165 68.933463,65.904408 68.9530888,65.735568 C68.9825275,65.5667279 69.0659359,65.4227194 69.2033165,65.3035382 C69.3406971,65.1843569 69.4927948,65.1247672 69.6596141,65.1247672 C69.8264334,65.1247672 69.9613588,65.1843569 70.0643943,65.3035382 C70.1674297,65.4227194 70.2042275,65.5667279 70.1747888,65.735568 C70.1453501,65.904408 70.0619417,66.0484165 69.9245611,66.1675978 Z M68.4820719,71.6350093 C68.668517,71.6350093 68.8647721,71.5406589 69.070843,71.3519553 C69.4339203,70.9844799 69.8951198,70.2346425 70.4544551,69.1024209 C70.5231454,68.9534443 70.5918347,68.908752 70.660525,68.9683426 C70.6801508,68.9882062 70.6899636,69.0204839 70.6899636,69.0651769 C70.6899636,69.1098699 70.6507126,69.2191177 70.5722094,69.3929236 C70.4937061,69.5667296 70.4225637,69.7231526 70.3587798,69.8621974 C70.294996,70.0012422 70.1723365,70.2271865 69.9907979,70.5400372 C69.8092592,70.852888 69.6448956,71.0937298 69.497702,71.2625698 C69.0953731,71.729363 68.7151289,71.9627561 68.356958,71.9627561 C67.9987871,71.9627561 67.7412023,71.8535082 67.5841959,71.6350093 C67.4271895,71.4165104 67.3486874,71.1731857 67.3486874,70.9050279 C67.3486874,70.6368702 67.4124703,70.3438874 67.5400381,70.0260708 L68.4820719,67.5977654 C68.5016977,67.5381747 68.5115104,67.4587218 68.5115104,67.3594041 C68.5115104,67.2600864 68.4526339,67.1309753 68.3348791,66.972067 L69.1444394,66.9571695 C69.3701361,66.9571695 69.5026083,66.9993788 69.5418599,67.0837989 C69.5811115,67.1682189 69.5516732,67.2998129 69.4535442,67.4785847 L68.276002,70.264432 C68.1091826,70.6319075 68.0257742,70.9447535 68.0257742,71.2029795 C68.0257742,71.4910008 68.1778719,71.6350093 68.4820719,71.6350093 Z M77.022524,67.0763501 C75.8253501,69.231544 75.2267721,70.6219708 75.2267721,71.2476723 C75.2267721,71.5257618 75.3199933,71.6648045 75.5064384,71.6648045 C75.741948,71.6648045 76.0117988,71.4860353 76.3159987,71.1284916 C76.777205,70.5623808 77.179528,69.8820648 77.5229795,69.0875233 C77.5818569,68.9484785 77.6407334,68.8938546 77.6996108,68.9236499 C77.7584882,68.9534452 77.7879265,68.9931717 77.7879265,69.0428305 C77.7879265,69.0924894 77.7388627,69.2166346 77.6407337,69.41527 L77.4052253,69.8919926 C77.3463479,70.0111738 77.2163289,70.239601 77.0151644,70.5772812 C76.8139999,70.9149613 76.6422767,71.1632518 76.4999897,71.3221601 C76.3577026,71.4810685 76.1761667,71.6374915 75.9553764,71.7914339 C75.7345861,71.9453763 75.4843609,72.0223464 75.2046932,72.0223464 C74.9250255,72.0223464 74.6870662,71.8833037 74.4908082,71.6052142 C74.4024921,71.4761012 74.3583347,71.2998149 74.3583347,71.0763501 C74.3583347,70.8528853 74.4073985,70.5822486 74.5055275,70.264432 C74.6036565,69.9466154 74.8735072,69.4301712 75.3150878,68.7150838 C75.4230297,68.536312 75.4769998,68.3947864 75.4769998,68.2905028 C75.4769998,68.1862192 75.3960446,68.1340782 75.2341317,68.1340782 C75.0722189,68.1340782 74.7802894,68.3327106 74.3583347,68.7299814 C73.9363799,69.1272521 73.4923528,69.6635596 73.02624,70.3389199 C72.5601272,71.0142802 72.2829169,71.5555535 72.1946008,71.9627561 C72.0277815,71.9627561 71.9051221,71.8932347 71.8266189,71.7541899 C71.7481156,71.6151452 71.7088646,71.4959657 71.7088646,71.396648 C71.7088646,70.9894455 71.9787154,70.2147791 72.5184249,69.0726257 C72.6950571,68.6952185 72.7882783,68.4394793 72.7980912,68.3054004 C72.8079041,68.1713215 72.7907318,68.1018001 72.7465737,68.0968343 C72.7024157,68.0918684 72.641086,68.1092487 72.5625828,68.1489758 C72.3859505,68.2383617 72.1160998,68.4568574 71.7530225,68.8044693 C71.0661194,69.4401025 70.3890394,70.4084355 69.7217621,71.7094972 C69.6726976,71.8187467 69.6113679,71.8857851 69.5377711,71.9106145 C69.4641743,71.9354439 69.3194362,71.9528243 69.1035524,71.9627561 C68.8876686,71.9726878 68.7453836,71.9975169 68.6766933,72.0372439 C68.8533255,71.689632 69.1624273,71.0391109 69.6040079,70.0856611 C70.3988528,68.3773968 70.9287416,67.3941664 71.1936899,67.1359404 C71.3114447,67.0167592 71.4733551,66.9571695 71.6794261,66.9571695 C71.7186777,66.9571695 71.8192584,66.9720669 71.9811713,67.0018622 C72.1430841,67.0316575 72.2632904,67.0366233 72.3417936,67.0167598 C71.9787162,67.2153952 71.3850446,68.1489674 70.5607609,69.8175047 C71.0219673,69.241462 71.3531477,68.8640605 71.5543122,68.6852886 C71.7554767,68.5065168 71.9051212,68.3724399 72.0032502,68.283054 C72.1013792,68.1936681 72.177428,68.1241467 72.231399,68.0744879 C72.28537,68.0248291 72.363872,67.9528248 72.4669075,67.858473 C72.5699429,67.7641212 72.6484449,67.6945999 72.7024159,67.6499069 C72.7563869,67.6052139 72.8324357,67.5431413 72.9305647,67.4636872 C73.0286937,67.384233 73.1047426,67.332092 73.1587135,67.3072626 C73.2126845,67.2824331 73.2862801,67.2402238 73.3795027,67.1806331 C73.4727253,67.1210425 73.5414145,67.0912477 73.5855726,67.0912477 C73.6297306,67.0912477 73.6910604,67.0788331 73.7695636,67.0540037 C73.8480668,67.0291743 73.9020369,67.036623 73.9314756,67.0763501 C74.1277337,67.1558042 74.2258612,67.2799495 74.2258612,67.4487896 C74.2258612,67.5977661 74.0590444,67.9801335 73.7254057,68.5959032 C73.3917671,69.2116728 73.1758865,69.6188693 73.0777575,69.8175047 C73.5095251,69.2712574 73.9216608,68.8218515 74.3141769,68.4692737 C74.7066929,68.1166959 75.1703455,67.7914354 75.7051486,67.4934823 C76.2399518,67.1955292 76.6300087,67.0465549 76.8753313,67.0465549 C76.9342087,67.0465549 76.9832724,67.0564866 77.022524,67.0763501 Z M77.7617588,69.6685289 C77.6243782,70.006209 77.5556889,70.3836106 77.5556889,70.8007449 C77.5556889,71.0788344 77.6170186,71.299813 77.7396799,71.4636872 C77.8623412,71.6275613 78.0365175,71.7094972 78.2622143,71.7094972 C79.1551883,71.7094972 79.9647405,70.8603437 80.6908952,69.1620112 C80.7595855,69.0031029 80.8429939,68.9335815 80.9411229,68.9534451 C80.9803745,68.9633768 81,68.9882059 81,69.027933 C81,69.06766 80.8896065,69.3283651 80.6688162,69.8100559 C80.448026,70.2917467 80.2247858,70.6815628 79.9990891,70.9795158 C79.4986311,71.6747397 78.8804276,72.0223464 78.14446,72.0223464 C77.751944,72.0223464 77.4183104,71.8932353 77.1435491,71.6350093 C76.8687879,71.3767833 76.7314093,71.0242108 76.7314093,70.5772812 C76.7314093,70.1303516 76.8368964,69.6561167 77.0478738,69.1545624 C77.2588512,68.653008 77.5458742,68.1862219 77.9089516,67.7541899 C78.2720289,67.322158 78.689071,67.0068291 79.1600902,66.8081937 C79.385787,66.708876 79.6016675,66.6592179 79.8077385,66.6592179 C80.0138094,66.6592179 80.2051581,66.7188076 80.3817903,66.8379888 C80.5486096,66.9770336 80.632018,67.1309737 80.632018,67.2998138 C80.632018,67.8957199 80.2787589,68.4667881 79.57223,69.0130354 C79.3563462,69.1818755 79.0521508,69.3333327 78.6596348,69.4674115 C78.2671187,69.6014904 77.9678297,69.6685289 77.7617588,69.6685289 Z M80.2345975,67.2849162 C80.2345975,67.0862808 80.1560955,66.9869646 79.9990891,66.9869646 C79.7243279,66.9869646 79.3072858,67.3296055 78.7479504,68.0148976 C78.4143118,68.4320319 78.1199292,68.898818 77.8647938,69.41527 C78.0316131,69.41527 78.2744787,69.3556803 78.593398,69.2364991 C78.9123173,69.1173178 79.1895276,68.9584119 79.4250372,68.7597765 C79.9647468,68.2929834 80.2345975,67.8013682 80.2345975,67.2849162 Z"/>
    <path fill-rule="nonzero" d="M76.3528622,35.3993137 C75.4339176,34.4930909 74.4841631,33.5522882 74.3230033,32.7356909 C74.1515647,31.8707787 74.6830322,30.6061158 75.197348,29.3794114 C75.8968308,27.7185175 76.6168886,26.0059302 75.9962653,24.503557 C75.3653633,22.9735727 73.6269702,22.2671547 71.9468176,21.5849074 C70.7398745,21.0955929 69.4883403,20.5856187 69.018642,19.8792007 C68.5386034,19.1590125 68.5488909,17.7978788 68.5591785,16.4781086 C68.5728938,14.6655748 68.5831804,12.7944668 67.4310597,11.6332172 C66.2755544,10.4719677 64.4171253,10.4891694 62.6067107,10.4960501 C61.2968921,10.5063879 59.9390592,10.5132792 59.2224422,10.0343026 C58.516104,9.56221631 58.0120758,8.30451351 57.525173,7.08813016 C56.8462653,5.39962528 56.1433767,3.6526345 54.6175373,3.01855201 C53.1225956,2.39829265 51.4184798,3.12193004 49.7658016,3.82144089 C48.5485885,4.33832221 47.2867843,4.87586326 46.4261242,4.70013208 C45.613496,4.53817993 44.6808406,3.58369524 43.7756771,2.66018249 C42.493333,1.35417368 41.1697334,0 39.4965152,0 C37.8232971,0 36.4996974,1.35073333 35.2173533,2.66018249 C34.3121899,3.58369524 33.3760409,4.53817111 32.5669063,4.70013208 C31.7028403,4.87242292 30.4478653,4.33831339 29.2272289,3.82144089 C27.577974,3.11848087 25.8704348,2.39484349 24.3754931,3.01855201 C22.8530771,3.65603957 22.1501534,5.39962528 21.4678575,7.09157051 C20.9809635,8.30451351 20.4735119,9.56226924 19.7705883,10.0343026 C19.0539625,10.5167275 17.702985,10.5063888 16.3863198,10.4960501 C14.5759051,10.478821 12.7208994,10.4719289 11.565394,11.6297769 C10.4098887,12.7910265 10.423582,14.6621344 10.4372753,16.4746682 C10.447562,17.7909981 10.45442,19.155581 9.9778118,19.8757604 C9.50806077,20.5856099 8.25657927,21.0921437 7.04963617,21.581467 C5.36948359,22.2637497 3.63113441,22.9701324 3.00018844,24.503557 C2.37957391,26.0059302 3.10305511,27.7219579 3.79910578,29.3794114 C4.31343032,30.6026755 4.84488906,31.8673119 4.67688258,32.7356909 C4.51573154,33.5523588 3.56596826,34.4896505 2.64702373,35.3993137 C1.34747517,36.6880326 0,38.018212 0,39.699748 C0,41.4054546 1.51899276,42.7321055 2.98646002,44.0139436 C4.02881997,44.9271354 5.10892432,45.8678498 5.26666081,46.6638051 L5.37295081,47.1979146 L19.3901686,51.0572787 C19.1741565,51.8394902 18.9684231,53.0076029 19.1604368,54.27912 C19.3695935,55.6574643 20.6451085,56.6119402 22.0029414,56.4121354 C22.4932588,56.3397725 23.017827,56.2501832 23.5733719,56.1605842 C27.1118658,55.5747901 31.5625453,54.6133982 34.5798152,56.3466629 C34.7821165,56.46382 35.0187036,56.7946226 35.0975631,56.918678 C35.9204789,58.2212465 37.3297495,59 38.8658589,59 C40.4019683,59 41.811239,58.2212377 42.6341547,56.918678 C42.7095882,56.7980718 43.0524681,56.4672692 43.1690544,56.3949072 C45.8058081,54.7168116 50.7330326,55.5747901 54.2746865,56.1571439 C54.8438721,56.2501832 55.3856008,56.3397734 55.8827736,56.4121354 C57.2097088,56.6051036 58.4441263,55.7229632 58.7081615,54.3962682 C58.9790347,53.0316853 58.7527359,51.8980467 58.5572893,51.2570835 L74.2168274,47.2047071 L74.3231174,46.6602589 C74.4842685,45.843591 75.4340317,44.9062992 76.3529763,43.9966361 C77.6525248,42.7079172 79,41.3777377 79,39.6962018 C79,38.0146658 77.6524371,36.6844864 76.3529763,35.3992078 L76.3528622,35.3993137 Z M23.2921322,54.4173778 C22.7469538,54.506968 22.225809,54.5931178 21.7457528,54.6654798 C21.3274395,54.7309514 20.9605552,54.4380552 20.8954066,54.0142132 C20.7479664,53.0390071 20.915979,52.1259036 21.0805648,51.5228724 L29.0422637,53.7144619 C27.0501493,53.8006082 25.0271371,54.1314144 23.2921235,54.4174131 L23.2921322,54.4173778 Z M56.9873503,54.0521188 C56.9050588,54.4587326 56.5278869,54.7309523 56.1404362,54.6723693 C55.6501188,54.6000065 55.1186162,54.5104172 54.5597357,54.4208182 C52.8933642,54.1451493 50.956023,53.8246854 49.0393096,53.7247565 L56.8569654,51.7020086 C56.9906859,52.0982837 57.2032747,52.9735258 56.9872626,54.0521188 L56.9873503,54.0521188 Z M75.1222191,42.7430793 C74.1690413,43.6837938 73.1918123,44.6521193 72.7666173,45.7616754 L51.7306962,51.2061575 C51.7889858,50.8098825 51.5866881,50.410167 51.1992287,50.2585624 C51.1615124,50.2447789 51.1375104,50.2344411 51.1272238,50.2309955 C51.1237952,50.2137664 51.1203657,50.182753 51.1203657,50.1379561 C51.0997932,49.6520909 50.6814773,49.2627053 50.2048445,49.2971705 C49.7213826,49.3178452 49.3442107,49.7313512 49.3682179,50.2172429 C49.3785045,50.4067619 49.4025056,50.6927695 49.5362331,50.9822262 C49.5808075,51.0821551 49.6356677,51.1751944 49.6973842,51.2613443 C49.8105384,51.4198561 49.9442589,51.5370131 50.0745561,51.6334928 L45.8399852,52.7292876 C43.8135497,53.2530584 42.1506015,54.4073832 41.156256,55.9752995 C40.6556511,56.7644005 39.798423,57.2399359 38.8692085,57.2399359 C37.9365707,57.2399359 37.0827572,56.7678497 36.5821611,55.9752995 C35.5843922,54.4005025 33.9179329,53.2254915 31.8846507,52.6672731 L27.6637732,51.5060235 C27.7392076,51.4371063 27.8112134,51.3544012 27.876362,51.2648111 C27.9346516,51.1821104 27.9860841,51.0925202 28.037513,50.9891422 C28.1712335,50.692796 28.198664,50.4102376 28.2055283,50.2207185 C28.2261007,49.7348533 27.8523635,49.3213764 27.3689016,49.3006461 C26.8888631,49.2696336 26.4740082,49.6555665 26.4533804,50.1414318 C26.4499518,50.1862286 26.4465232,50.2172411 26.4499518,50.2275781 C26.4328071,50.2344702 26.408806,50.244808 26.3710889,50.2585915 C26.0522101,50.3860872 25.853341,50.6789843 25.8259105,51.0028974 L6.82379824,45.7720697 C6.36091142,44.6280218 5.23282779,43.6424946 4.13903011,42.6880188 C3.02126913,41.7128126 1.75604165,40.6066968 1.75604165,39.7039143 C1.75604165,38.7597595 2.836146,37.6950161 3.87850596,36.6612358 C4.98599695,35.565441 6.13123234,34.4318024 6.39869093,33.0809809 C6.67299619,31.6819945 6.03523867,30.1657716 5.41803869,28.6943615 C4.85914065,27.3677106 4.28307329,25.9996873 4.62255346,25.1795614 C4.97229485,24.3318775 6.36441375,23.7667254 7.70846559,23.218828 C9.16223953,22.6295847 10.667539,22.0196464 11.439017,20.8583968 C12.2173592,19.6902666 12.2070717,18.0500148 12.1967842,16.4648967 C12.1864984,15.0142169 12.1762117,13.5187244 12.8139754,12.8777612 C13.4483095,12.2402736 14.9364397,12.2471719 16.383367,12.260951 C17.9606441,12.2678423 19.5926945,12.2816266 20.7585576,11.4994168 C21.9106397,10.7240949 22.5175346,9.21132117 23.1073128,7.75032029 C23.6490679,6.39958696 24.2148038,5.00051234 25.0583473,4.64562728 C25.877831,4.30448595 27.2356727,4.88339057 28.5523379,5.44506698 C30.0130463,6.06531752 31.5285279,6.70626306 32.9172586,6.4305942 C34.2578871,6.16181485 35.3860058,5.01087749 36.4798035,3.89788099 C37.5084701,2.85033931 38.5679467,1.76486559 39.5074313,1.76486559 C40.4469158,1.76486559 41.5063924,2.85033931 42.535059,3.89788099 C43.6254333,5.01087749 44.7534643,6.16180603 46.0976039,6.4305942 C47.4862468,6.70281389 48.9983929,6.06533516 50.4625246,5.44506698 C51.7791898,4.88339057 53.1404461,4.30101914 53.9565152,4.64562728 C54.800006,4.99710728 55.3623625,6.39614662 55.9075497,7.75032029 C56.4973016,9.21132117 57.1042228,10.7241037 58.2563049,11.4994168 C59.4220802,12.2850687 61.0507951,12.2747388 62.6280722,12.260951 C64.0681529,12.2540597 65.5596712,12.2402754 66.1974638,12.8812015 C66.8352213,13.5221294 66.8249338,15.0176573 66.8112229,16.4648967 C66.8009371,18.0500148 66.7906505,19.6901784 67.5689901,20.8583968 C68.3404769,22.0162061 69.8457675,22.6295583 71.2995415,23.218828 C72.6435933,23.7632762 74.0357473,24.3318245 74.3854536,25.1795614 C74.7249075,25.9996785 74.1488664,27.3677106 73.5899684,28.6943615 C72.972786,30.1623313 72.3315876,31.6819063 72.6093161,33.0809809 C72.876766,34.4282739 74.0185868,35.5620007 75.1295011,36.6612358 C76.1718611,37.6950161 77.2519654,38.7597595 77.2519654,39.7039143 C77.2416788,40.6446288 76.1650144,41.7093722 75.1226545,42.7431525 L75.1222191,42.7430793 Z M29.1793812,10.9278049 C30.0503026,11.2792849 31.2160868,11.6824495 32.5053653,11.6824495 C32.9031036,11.6824495 33.3008506,11.6445448 33.6883451,11.5652924 C35.3856143,11.2276003 36.5788641,10.2352012 37.5251953,9.3082481 C37.8715046,8.96710678 37.87836,8.408906 37.5423392,8.06081341 C37.2063174,7.71278257 36.6474457,7.70589306 36.301075,8.04358433 C35.5398757,8.78789026 34.5935358,9.58388962 33.3522716,9.83194749 C32.1384818,10.07316 30.8320866,9.68722354 29.8343177,9.28749928 C29.3851418,9.10831893 28.8742055,9.32540397 28.6925057,9.78025407 C28.5107795,10.2316629 28.7302229,10.7451392 29.1793997,10.9277423 L29.1793812,10.9278049 Z M36.3936532,13.9704834 C35.7216098,14.6286395 34.9569959,15.2661712 33.924906,15.4694163 C32.9202904,15.6692741 31.8162228,15.3453698 30.9795259,15.0076688 C30.5269266,14.8250393 30.0194136,15.0455735 29.8377138,15.5004236 C29.6594198,15.9518324 29.8788596,16.4653087 30.3280312,16.6479118 C31.0857983,16.9511475 32.1007014,17.3026275 33.2288202,17.3026275 C33.5785616,17.3026275 33.928303,17.2681685 34.2677568,17.2026987 C35.7524285,16.9063524 36.7947885,16.0414491 37.6177042,15.2350846 C37.9640135,14.8939433 37.9708689,14.3357425 37.6348481,13.9876499 C37.2953942,13.6361699 36.7399546,13.6292804 36.3935839,13.9704208 L36.3936532,13.9704834 Z M36.4862323,19.8904392 C35.9444773,20.4245487 35.3273036,20.9379809 34.5009646,21.1033822 C33.7157669,21.2584448 32.8071187,21.0000042 32.1282461,20.7277845 C31.6756468,20.5417058 31.1681338,20.7656892 30.986434,21.2170989 C30.8047079,21.6685078 31.0241512,22.1819841 31.473328,22.3645871 C32.1145177,22.6230278 32.9785397,22.9228144 33.9454986,22.9228144 C34.2506665,22.9228144 34.5524023,22.8952475 34.8403921,22.8366672 C36.1261595,22.5816757 37.0485274,21.8028869 37.7102833,21.1585716 C38.0565926,20.8174302 38.063448,20.2592295 37.7274272,19.9111369 C37.3914054,19.5596569 36.8325337,19.5527673 36.486163,19.8904621 L36.4862323,19.8904392 Z M36.5788115,25.8138353 C36.1604982,26.2204491 35.6907647,26.6167242 35.0770231,26.7373481 C34.4735516,26.8579543 33.794679,26.6546474 33.2734551,26.444451 C32.8242792,26.2583723 32.3133429,26.4823557 32.1316431,26.9337655 C31.9499169,27.3851743 32.1693603,27.8986506 32.6185371,28.0812537 C33.1500046,28.2948992 33.8598013,28.539552 34.6620893,28.539552 C34.9158194,28.539552 35.1695584,28.5154308 35.413001,28.4671892 C36.4862587,28.2535436 37.2508901,27.6126157 37.7995006,27.0750835 C38.1458098,26.7339421 38.1526653,26.1757414 37.8166444,25.8276488 C37.484046,25.4796179 36.9285976,25.4761688 36.5788036,25.8138653 L36.5788115,25.8138353 Z M36.6748227,31.7372315 C36.3868066,32.0197898 36.0644957,32.2954587 35.6599372,32.374719 C35.2519114,32.4574197 34.7924479,32.312694 34.4256074,32.167963 C33.9798636,31.9853334 33.4654951,32.2058677 33.2837954,32.6607178 C33.1055013,33.1121266 33.3249411,33.6256029 33.7741127,33.8082059 C34.192426,33.9736073 34.7513416,34.1665755 35.3925576,34.1665755 C35.5982909,34.1665755 35.8040154,34.1459007 35.9994612,34.107996 C36.860095,33.9357052 37.4704396,33.4291626 37.9024813,33.0018802 C38.2487906,32.6607389 38.255646,32.1025381 37.9196252,31.7544456 C37.576748,31.4029655 37.0178851,31.3995252 36.6749377,31.7372165 L36.6748227,31.7372315 Z M36.571956,39.7385092 C37.2234332,39.6075643 37.6760237,39.2354158 37.9914967,38.9218413 C38.337806,38.5807 38.3446614,38.0224992 38.0086405,37.6744066 C37.6691867,37.3263758 37.1137471,37.3194863 36.7673764,37.6571767 C36.5479322,37.8742626 36.3902044,37.9742003 36.2359088,38.0052075 C36.0267522,38.0465578 35.7764453,37.9638572 35.5672887,37.8811609 C35.1215449,37.6985314 34.6071764,37.9190656 34.4254766,38.3739157 C34.2471826,38.8253246 34.4666224,39.3388008 34.915794,39.5214039 C35.2175297,39.6420101 35.6289876,39.7832937 36.1056204,39.7832937 C36.2667715,39.7832937 36.4210759,39.7695103 36.5719394,39.7384978 L36.571956,39.7385092 Z M36.8599722,43.5806716 C36.8325416,43.6082385 36.8119683,43.6254684 36.8051111,43.6358054 C36.7879672,43.6289141 36.7571072,43.6220219 36.7159641,43.6047928 C36.2667881,43.4221633 35.7558518,43.6426975 35.574152,44.0975476 C35.395858,44.5489565 35.6152978,45.0624328 36.0644694,45.2450358 C36.2393401,45.313953 36.5102132,45.4104371 36.829092,45.4104371 C36.935382,45.4104371 37.0416807,45.4000993 37.1479707,45.3794246 C37.5937146,45.2898344 37.8954503,45.0348429 38.0840319,44.8522046 C38.4303412,44.5110633 38.4371966,43.9528625 38.1011758,43.6047699 C37.765154,43.2498495 37.2097056,43.2395109 36.8599116,43.5806487 L36.8599722,43.5806716 Z M44.2799072,11.5580942 C44.67079,11.6614722 45.0651049,11.7234955 45.4559526,11.7441729 C45.5725301,11.751065 45.6891077,11.7545107 45.8022619,11.7545107 C47.3657579,11.7545107 48.6618832,11.1411497 49.7282942,10.5278063 C50.1500396,10.2865938 50.2940477,9.74559477 50.0540284,9.32518432 C49.8140091,8.90134233 49.2756861,8.75316922 48.8573553,8.99783085 C47.9315641,9.52849121 46.8240731,10.0488129 45.5519989,9.98679841 C45.2776937,9.96956933 44.996533,9.92477248 44.7187956,9.85241315 C43.7656178,9.60431117 42.9529721,9.06676129 42.2877928,8.57401533 C41.89691,8.28456743 41.3483083,8.37070844 41.0603097,8.76353437 C40.7722936,9.15636029 40.8580085,9.7076892 41.2488913,9.99711945 C42.0032351,10.5519064 43.0318315,11.2341449 44.2799424,11.5580668 L44.2799072,11.5580942 Z M43.5804245,17.181739 C43.9267337,17.2713292 44.273043,17.326463 44.6125144,17.3436912 C44.7153811,17.3505824 44.8182478,17.354029 44.9211056,17.354029 C46.2926319,17.354029 47.4173273,16.8199194 48.3464541,16.2824048 C48.7681995,16.0411924 48.9122075,15.5001933 48.6721883,15.0797829 C48.432169,14.6559409 47.893846,14.5077678 47.4755151,14.7524294 C46.700605,15.2003891 45.7679759,15.6448908 44.7119227,15.5828852 C44.485623,15.5691017 44.2524592,15.531197 44.0193041,15.4726176 C43.2238189,15.2658616 42.5380557,14.8110124 41.9757519,14.3940246 C41.5848691,14.1045767 41.0362674,14.1907177 40.7482688,14.5835436 C40.4602527,14.9763696 40.5459676,15.5276985 40.9368504,15.8171287 C41.5917509,16.3064432 42.4866531,16.8991621 43.5804508,17.1817117 L43.5804245,17.181739 Z M42.8775184,22.8053838 C43.1723987,22.8811923 43.4707024,22.9294304 43.7655651,22.9466674 C43.8512853,22.9535596 43.9370037,22.9535596 44.0227274,22.9535596 C45.2125539,22.9535596 46.2137461,22.4711347 46.9612608,22.0438965 C47.3830062,21.802684 47.5270143,21.261685 47.286995,20.8412745 C47.0469757,20.4174325 46.5086528,20.2692594 46.0903219,20.513921 C45.4285572,20.8929679 44.7153723,21.2306601 43.8684933,21.1893053 C43.6901992,21.1789675 43.505041,21.147955 43.3164506,21.0997152 C42.675261,20.9343138 42.1197775,20.5656056 41.6637725,20.2244643 C41.2728897,19.9350164 40.724288,20.0211574 40.4362894,20.4139833 C40.1482645,20.8068093 40.2339882,21.3581382 40.624871,21.6475684 C41.1803369,22.0576226 41.9415362,22.5607601 42.8775974,22.8053777 L42.8775184,22.8053838 Z M42.1746123,28.4290287 C42.421487,28.4910546 42.6717938,28.5324067 42.9186685,28.5461857 C42.9906743,28.5496314 43.0626766,28.553077 43.1346806,28.553077 C44.1290262,28.553077 44.9553653,28.1568019 45.5759535,27.7984324 C45.9976989,27.5572199 46.141707,27.0162209 45.9016877,26.5958104 C45.6616684,26.1719684 45.1233454,26.0237953 44.7050145,26.268457 C44.2009776,26.5579049 43.6386913,26.809456 43.0214386,26.7853383 C42.884286,26.7750005 42.7471334,26.7543258 42.6134129,26.7198667 C42.1265189,26.592371 41.701315,26.3098126 41.3481854,26.0479228 C40.9573026,25.7619152 40.4087009,25.8446159 40.1207023,26.2374418 C39.8326862,26.6302677 39.9184011,27.1815966 40.3092839,27.4710269 C40.7653153,27.808719 41.3928116,28.2256715 42.1745596,28.4289431 L42.1746123,28.4290287 Z M41.468274,34.0492332 C41.6637198,34.1009204 41.8660123,34.1319338 42.0717456,34.1457217 C42.1300352,34.1491673 42.1917552,34.1526129 42.2466163,34.1526129 C43.0455336,34.1526129 43.6969669,33.8390385 44.187293,33.5564801 C44.6090384,33.3152677 44.7530465,32.7742686 44.5130272,32.3538582 C44.2730079,31.9300162 43.734685,31.7818431 43.3163541,32.0265047 C42.9666127,32.2298116 42.5825854,32.3986621 42.1711187,32.3848742 C42.0853985,32.3779829 41.996248,32.3676451 41.907101,32.3435239 C41.5779347,32.2573776 41.279631,32.0575163 41.0327563,31.8748868 C40.6418735,31.5888793 40.0932718,31.6715799 39.8052732,32.0644059 C39.5172483,32.4572318 39.602972,33.0085607 39.9938548,33.2979909 C40.3538837,33.5633211 40.8476332,33.8906834 41.4682565,34.0491864 L41.468274,34.0492332 Z M43.1312222,38.1119306 C42.8912029,37.6880886 42.356312,37.5399155 41.9345491,37.7845771 C41.6636759,37.9396398 41.4922286,37.9982227 41.3242221,37.987884 C41.2865058,37.9844384 41.2453591,37.9775471 41.2076445,37.9706549 C41.036206,37.925859 40.8647674,37.8087028 40.7173272,37.7018756 C40.3264444,37.4124277 39.7778427,37.4985687 39.4898441,37.8913946 C39.201828,38.2842206 39.2875429,38.8355495 39.6784257,39.1249797 C39.9424434,39.3213971 40.3024723,39.5557112 40.7653767,39.6797666 C40.9196723,39.7211169 41.0739679,39.7417926 41.2214081,39.7521295 C41.2694111,39.755576 41.3139872,39.755576 41.3585607,39.755576 C41.9586002,39.755576 42.4386651,39.5247022 42.8020647,39.317955 C43.2238101,39.0733022 43.3712503,38.5357435 43.131231,38.1118927 L43.1312222,38.1119306 Z M40.5459062,43.5425631 C40.5150462,43.5597922 40.4910451,43.5735756 40.4841871,43.5804669 C40.4670432,43.57013 40.4430413,43.5563457 40.4053241,43.5253332 C40.0144413,43.2393256 39.4658396,43.3220263 39.177841,43.7183014 C38.8932482,44.1111273 38.9755398,44.6624562 39.3698547,44.9518864 C39.5344378,45.0724927 39.7641696,45.2241061 40.0624732,45.2999173 C40.1687632,45.3274842 40.2784853,45.3447133 40.381352,45.3516054 C40.4156397,45.3550511 40.4464988,45.3550511 40.4773544,45.3550511 C40.8888123,45.3550511 41.2111232,45.1965393 41.4236856,45.075933 C41.845431,44.8312802 41.9894391,44.2937215 41.7459965,43.8698707 C41.5025539,43.4460199 40.9642309,43.3013048 40.5459,43.5425173 L40.5459062,43.5425631 Z M56.6030772,14.7627337 C56.9493865,14.9660406 57.3128388,15.1314419 57.6831816,15.2623868 C58.3860877,15.5035993 59.0649778,15.5966386 59.7164638,15.5966386 C60.5805297,15.5966386 61.393193,15.4346865 62.1235033,15.252057 C62.5932543,15.1348999 62.8812705,14.6559241 62.7612608,14.1838732 C62.6446833,13.711787 62.1646447,13.4223391 61.6983609,13.5429453 C60.6628476,13.8013859 59.4490578,14.0115824 58.2523847,13.5980791 C57.988367,13.5050397 57.7277726,13.3878827 57.4808979,13.2431587 C56.6305516,12.7469547 55.9928029,12.0061333 55.4853601,11.3514087 C55.1870565,10.9654723 54.6350138,10.8965595 54.2544537,11.1997864 C53.8704264,11.499573 53.8052778,12.0543599 54.1035814,12.4368118 C54.6830546,13.1742283 55.488801,14.1114671 56.6032264,14.7627513 L56.6030772,14.7627337 Z M54.4154819,19.9866807 C54.7206498,20.1658699 55.0429518,20.3140342 55.361813,20.4243017 C55.9789955,20.6379473 56.5790261,20.7171988 57.1482644,20.7171988 C57.9026082,20.7171988 58.6089728,20.5759152 59.2432543,20.4174122 C59.7130053,20.3002552 59.9975981,19.8178302 59.8810118,19.3457881 C59.7644343,18.8737019 59.2809724,18.5876943 58.8146885,18.7048602 C57.9471993,18.9219461 56.9288729,19.1011353 55.9310162,18.7531018 C55.7150041,18.6772933 55.5024153,18.580811 55.2932587,18.4567556 C54.580065,18.0398031 54.0451478,17.4195349 53.6165294,16.8647569 C53.3182258,16.4788205 52.7661831,16.4099076 52.385623,16.7131346 C52.0015957,17.0129212 51.9364471,17.5677081 52.2347507,17.95016 C52.7353556,18.6014266 53.4382705,19.4146894 54.4154994,19.9866693 L54.4154819,19.9866807 Z M52.2278865,25.2106278 C52.4919042,25.3656904 52.7662095,25.4897458 53.0439468,25.5862255 C53.5719823,25.768855 54.0897301,25.8377766 54.5800562,25.8377766 C55.241821,25.8377766 55.8487071,25.7137301 56.3629965,25.5862255 C56.8327475,25.4690684 57.1173403,24.9866435 57.000754,24.5146014 C56.8841765,24.0425151 56.40757,23.7565076 55.9344307,23.8736735 C55.1972387,24.0597522 54.4085913,24.1906971 53.61315,23.9184703 C53.4451347,23.8598909 53.2736961,23.7806359 53.109113,23.6841562 C52.5365041,23.3499044 52.1044974,22.8433706 51.7512801,22.391997 C51.4529764,22.0060606 50.9009338,21.9371478 50.5203736,22.2403747 C50.1363463,22.5401613 50.0711977,23.0949482 50.3695014,23.4774001 C50.7946789,24.0287379 51.3913213,24.7213945 52.2279304,25.2106295 L52.2278865,25.2106278 Z M53.0542344,29.0389405 C52.4884809,29.1802241 51.8850357,29.2835933 51.2918341,29.0802908 C51.164969,29.0354949 51.038104,28.9769128 50.9180943,28.908 C50.4860613,28.6564489 50.1500396,28.2636229 49.8791577,27.9190324 C49.580854,27.5365452 49.0288114,27.4641832 48.6482513,27.7674102 C48.267656,28.0671967 48.1990753,28.6219836 48.497379,29.0044356 C48.8505437,29.4558445 49.3442932,30.0278948 50.0369117,30.4344733 C50.259788,30.5619691 50.489511,30.6722366 50.7226749,30.7480478 C51.1649954,30.9031104 51.6004517,30.9582442 52.0084423,30.9582442 C52.5536207,30.9582442 53.0542256,30.8583153 53.4794207,30.7514969 C53.9491717,30.6343399 54.2337645,30.1553641 54.1206103,29.6798728 C54.0006007,29.2112358 53.5239942,28.9252282 53.0542871,29.0389449 L53.0542344,29.0389405 Z M51.2369731,34.8486288 C51.1203955,34.3765425 50.640357,34.090535 50.1706498,34.2077008 C49.779767,34.3041894 49.3614449,34.3799917 48.9739767,34.2456055 C48.8882565,34.2180386 48.8093935,34.1766883 48.7305341,34.1318888 C48.4390858,33.9630383 48.2024987,33.6873695 48.0139083,33.4427167 C47.7156046,33.0567803 47.163562,32.9878674 46.7830019,33.2910944 C46.3989746,33.590881 46.333826,34.1456679 46.6321296,34.5281198 C46.909867,34.8830402 47.2973177,35.334449 47.8527661,35.658318 C48.0310601,35.7616961 48.2162183,35.8478371 48.408232,35.9133095 C48.7682609,36.0373561 49.1179935,36.08216 49.4437453,36.08216 C49.8757782,36.08216 50.2700931,36.002905 50.602674,35.9202079 C51.0689929,35.7996016 51.3535857,35.3206259 51.2370082,34.8485838 L51.2369731,34.8486288 Z M47.7155959,41.0856258 C48.1853469,40.9684687 48.4699397,40.489493 48.3533534,40.0140017 C48.2367758,39.5419154 47.7567373,39.2559079 47.2870301,39.3730738 C46.9852943,39.4488823 46.8035682,39.4592201 46.6526959,39.4040863 C46.6149788,39.3903028 46.573833,39.3730738 46.5395417,39.352399 C46.3852461,39.2628089 46.2515256,39.1042971 46.1418035,38.9630135 C45.8434998,38.577077 45.2914572,38.5116046 44.9108971,38.8113912 C44.5268697,39.1111778 44.4617212,39.6659646 44.7600248,40.0484166 C44.962326,40.3068573 45.2434867,40.6342107 45.6583416,40.8788724 C45.7920621,40.9581274 45.9326469,41.020156 46.080087,41.0752897 C46.3543923,41.1683291 46.6218421,41.2027855 46.8687168,41.2027855 C47.1841722,41.2027855 47.4721884,41.1442061 47.715631,41.0856284 L47.7155959,41.0856258 Z M44.4033929,44.5418517 C44.3691043,44.5521895 44.3451024,44.5556352 44.3348166,44.5590808 C44.3211013,44.5452974 44.3039575,44.5246226 44.2765269,44.486718 C43.9782233,44.1007815 43.4261806,44.0353091 43.0456205,44.3316553 C42.6615932,44.6314419 42.5964446,45.1862288 42.8913249,45.5686808 C43.0079024,45.7168539 43.1930607,45.9339398 43.4776535,46.1027903 C43.5702326,46.1579241 43.666235,46.1992788 43.7622463,46.2337352 C43.95426,46.2992068 44.1359861,46.3233254 44.3005692,46.3233254 C44.5097259,46.3233254 44.6948841,46.2854207 44.8388922,46.2475169 C45.3086432,46.1269106 45.593236,45.6479349 45.4732264,45.1758928 C45.3497934,44.7038065 44.8697548,44.4143586 44.403392,44.5418544 L44.4033929,44.5418517 Z M64.4307484,25.9586828 C64.674191,26.2171235 64.9382087,26.5100205 65.2193782,26.7098782 C66.4537079,27.5885694 67.7978476,27.9193809 68.9465063,27.9193809 L68.9807949,27.9193809 C69.4505459,27.9193809 69.8379966,27.4231769 69.8551396,26.9476151 C69.8722843,26.4617498 69.4985427,25.9276844 69.0116487,25.9103944 C68.1167553,25.8759363 67.091512,25.7587721 66.2274285,25.1454111 C66.0388469,25.0144662 65.8639762,24.8594036 65.695961,24.6871127 C65.1302075,24.0875308 64.7907975,23.3432601 64.5301856,22.6919759 C64.3518916,22.2371267 63.8409904,22.0269214 63.3883735,22.2061106 C62.9357743,22.385291 62.7163301,22.9159601 62.8946241,23.3673602 C63.2066474,24.125454 63.6523912,25.1350813 64.4307335,25.9586475 L64.4307484,25.9586828 Z M62.5654727,29.4424315 C62.4146004,29.3356131 62.2740245,29.2081174 62.1437273,29.070283 C61.6876959,28.5844177 61.4099585,27.9744882 61.2008194,27.4437926 C61.0225166,26.9889345 60.5116242,26.7580696 60.0590074,26.9372499 C59.6098314,27.1164303 59.3869639,27.6057447 59.5652579,28.0605675 C59.8189881,28.7049445 60.1995921,29.4940456 60.8648065,30.2004636 C61.0705398,30.4209986 61.3002628,30.527817 61.5437142,30.7001167 C62.6169719,31.4582105 63.8135572,31.4478718 64.7393484,31.4478718 L64.7736361,31.4478718 C65.2433872,31.4478718 65.6308378,31.2583527 65.6479808,30.7828173 C65.6651247,30.2969521 65.291384,30.0729678 64.80449,30.0522993 C64.0467228,30.0247324 63.2512639,29.9282527 62.5654569,29.4423786 L62.5654727,29.4424315 Z M60.5630883,35.8585913 C61.0328393,35.8585913 61.42029,35.5381273 61.437433,35.0626007 C61.4545768,34.5767354 61.077404,34.2218151 60.5939421,34.2011377 C60.014469,34.1804621 59.4041157,34.1080984 58.8932496,33.7428393 C58.7835275,33.6670308 58.6806608,33.5739889 58.5846584,33.4706196 C58.2383491,33.1088009 58.0291924,32.6367235 57.8680326,32.2266253 C57.6897386,31.7717761 57.1788374,31.551241 56.7262205,31.7304213 C56.2736213,31.9096105 56.0541771,32.4161443 56.2324711,32.8675885 C56.4450598,33.401698 56.7570832,34.0770911 57.3091521,34.659392 C57.4840228,34.8454707 57.6794686,34.9867455 57.881761,35.1314782 C58.7766545,35.7689658 59.7675767,35.858556 60.5287847,35.858556 L60.5630733,35.858556 L60.5630883,35.8585913 Z M56.3902251,38.3533724 C55.9856227,38.3361433 55.5673094,38.2913465 55.2312964,38.0501367 C55.1592915,37.9984485 55.0907117,37.9398691 55.0255631,37.8743967 C54.792408,37.6297439 54.6449678,37.3023816 54.5318136,37.0129337 C54.3535196,36.5580845 53.8426184,36.3409897 53.3900016,36.5236192 C52.9374023,36.7027996 52.7179581,37.2265792 52.8962521,37.6779881 C53.0608353,38.0983809 53.3111421,38.660075 53.7500305,39.1217873 C53.8906152,39.2699604 54.0449108,39.4457004 54.209494,39.5663066 C54.9329752,40.0762896 55.7182168,40.2692666 56.3216005,40.2692666 L56.3558882,40.2692666 C56.8256393,40.2692666 57.21309,39.8213069 57.2302329,39.3457539 C57.2508063,38.8564394 56.8736361,38.3705477 56.3901742,38.353346 L56.3902251,38.3533724 Z M52.1830409,42.4987264 C51.8744497,42.484943 51.6927236,42.4435927 51.5589943,42.3471041 C51.5281351,42.3264285 51.497276,42.2988617 51.4698473,42.2712948 C51.3464143,42.1403498 51.2641139,41.9577203 51.195542,41.792319 C51.017248,41.3374698 50.4994913,41.1307137 50.0537299,41.3133433 C49.604554,41.4925236 49.3851098,42.0335315 49.5634126,42.4849139 C49.6834222,42.7881496 49.8651484,43.2361093 50.1943147,43.584149 C50.3040368,43.701306 50.4240464,43.9080621 50.5440561,43.9942031 C51.0892345,44.3835887 51.6686637,44.6799261 52.1144865,44.6799261 L52.1487751,44.6799261 C52.6185262,44.6799261 53.0059768,44.1010215 53.0231198,43.6255037 C53.0436932,43.1361893 52.666523,42.5193879 52.1830611,42.4987458 L52.1830409,42.4987264 Z M47.9724334,46.6440804 C47.9312876,46.6406348 47.9072856,46.6371892 47.8969999,46.6406348 C47.8867132,46.6234057 47.8764265,46.5923932 47.8558532,46.5475954 C47.6741271,46.0961866 47.1598025,45.8722023 46.7140411,46.0513915 C46.2648652,46.234021 46.045421,46.7336741 46.2271471,47.1851183 C46.3025806,47.3746373 46.4191608,47.5986216 46.6351729,47.8294954 C46.7106064,47.9087504 46.7894685,47.9259839 46.8751922,47.9880072 C47.248932,48.2533373 47.6432469,48.2085423 47.9038588,48.2085423 L47.9381465,48.2085423 C48.4078976,48.2085423 48.7953482,47.9363226 48.8124912,47.4607872 C48.8330646,46.9749219 48.4558944,46.6613474 47.9724325,46.6441192 L47.9724334,46.6440804 Z M72.4887395,40.0831615 C71.7789779,39.8074926 71.0555055,39.4525722 70.5686027,38.770272 C70.4623127,38.6220988 70.3663015,38.4566975 70.2908653,38.2844067 C70.0165601,37.6813844 69.9514115,37.0163299 69.9274131,36.4443501 C69.9034112,35.9584848 69.4919568,35.5690993 69.0084685,35.6035645 C68.5250066,35.6276848 68.1512668,36.0377451 68.1718419,36.5270772 C68.202701,37.2231389 68.2952749,38.1362777 68.696454,39.018418 C68.8233191,39.2940869 68.9741914,39.5559767 69.1456299,39.8006295 C69.9068292,40.8688133 70.993789,41.3891879 71.8577847,41.7268713 C71.9606514,41.7682216 72.0703735,41.7854507 72.1766635,41.7854507 C72.5264049,41.7854507 72.8589945,41.5718051 72.9961471,41.2237743 C73.1675857,40.768925 72.9412861,40.2588891 72.488678,40.0831668 L72.4887395,40.0831615 Z M67.1672176,42.6261957 C66.6254625,42.4125501 66.0699966,42.14722 65.7065092,41.6372281 C65.6276462,41.5269606 65.559069,41.4063544 65.5007759,41.2788586 C65.2950426,40.8205602 65.2436136,40.3070928 65.2230385,39.8660226 C65.1990366,39.3801573 64.7670071,38.9907718 64.304094,39.0286773 C63.8206321,39.0527986 63.4468923,39.4662984 63.4708907,39.9521901 C63.4983212,40.5242052 63.5703253,41.278841 63.906347,42.0127818 C64.012637,42.2471047 64.1395021,42.4676398 64.2835189,42.6674975 C64.9212764,43.5599589 65.8196283,43.9941484 66.532822,44.2732576 C66.639112,44.3146088 66.7454107,44.3318379 66.8517007,44.3318379 C67.2014421,44.3318379 67.5340317,44.1181924 67.6711844,43.7701615 C67.842623,43.3153123 67.6197528,42.801836 67.1671474,42.6261137 L67.1672176,42.6261957 Z M61.8422724,45.16923 C61.4651005,45.0210568 61.0845052,44.8384273 60.8410802,44.497286 C60.7896486,44.4283688 60.7485011,44.352562 60.710783,44.2698614 C60.5701983,43.9597361 60.5359123,43.5979174 60.5222014,43.2877745 C60.4981995,42.8019093 60.0798809,42.4228624 59.6032569,42.4504292 C59.119795,42.4745505 58.7460552,42.8880503 58.7700536,43.373942 C58.7906269,43.8253509 58.8523452,44.4180433 59.1163629,45.0004324 C59.202083,45.1899514 59.3083765,45.3691406 59.4215308,45.5310928 C59.9324232,46.2478318 60.6455905,46.5923958 61.2079821,46.8129309 C61.3108488,46.8542813 61.4205709,46.8715103 61.5268609,46.8715103 C61.8766022,46.8715103 62.2091919,46.6578648 62.3463445,46.3098339 C62.5177831,45.8584251 62.2949121,45.3449488 61.8423075,45.1692264 L61.8422724,45.16923 Z M56.5207505,47.7122642 C56.2327344,47.5985475 56.0750067,47.4986186 55.9824276,47.3676825 C55.9584256,47.3332235 55.9378532,47.2987653 55.9207085,47.2608642 C55.8452749,47.098912 55.8281293,46.8921559 55.8212739,46.7129756 C55.7972728,46.2271103 55.3858176,45.8377247 54.9023294,45.8721812 C54.4188675,45.8963024 54.0416955,46.3063618 54.0657027,46.7956939 C54.0828466,47.1230474 54.1239933,47.5537789 54.322865,47.9948755 C54.3880127,48.1361591 54.4668731,48.2705444 54.5560201,48.3980401 C54.9434795,48.9390392 55.468118,49.1940307 55.8829553,49.3593967 C55.9892453,49.4007461 56.095544,49.4179761 56.201834,49.4179761 C56.5515754,49.4179761 56.8841651,49.2043305 57.0213177,48.8562997 C57.1961884,48.4014505 56.9733138,47.8879742 56.5207128,47.7122519 L56.5207505,47.7122642 Z M16.5274839,15.5556015 C17.1000928,15.65209 17.724157,15.7313415 18.3756429,15.7313415 C19.2019908,15.7313415 20.0729121,15.6038457 20.9575356,15.2144601 C21.3175645,15.0559483 21.6672971,14.8629801 21.9964722,14.6321064 C23.0593722,13.8946899 23.7897702,12.898877 24.307483,12.1131545 C24.5749328,11.7065408 24.4652107,11.162119 24.0606083,10.8898905 C23.6560058,10.6211111 23.1108538,10.7313787 22.8433952,11.1379925 C22.3873638,11.8306138 21.8078819,12.6162833 20.9986594,13.1813824 C20.7620723,13.3467837 20.5117654,13.4846182 20.2580353,13.5983349 C19.0956832,14.1048775 17.8681124,13.9911608 16.8189058,13.8119805 C16.3388672,13.7327263 15.8896912,14.0566333 15.8074435,14.535609 C15.725152,15.0180339 16.0474628,15.4728832 16.5274926,15.5555397 L16.5274839,15.5556015 Z M22.2707775,18.4604897 C22.0650441,18.5810959 21.8490321,18.6810248 21.63302,18.7568359 C20.6386744,19.1014176 19.6168544,18.9256864 18.7493476,18.7051487 C18.2795966,18.5879916 17.8030164,18.8739992 17.6830244,19.3460766 C17.5630147,19.8181628 17.8510396,20.2971121 18.3207819,20.4177007 C18.9585394,20.5796528 19.6614104,20.7174873 20.4191951,20.7174873 C20.9883807,20.7174873 21.5883938,20.6382322 22.2021353,20.4245902 C22.5278695,20.3108735 22.8467571,20.1627004 23.1518898,19.9869692 C24.1256954,19.4184033 24.8286191,18.6051845 25.3292152,17.9573406 C25.6275189,17.5748534 25.5589469,17.0200665 25.1783429,16.7203152 C24.7943156,16.4205286 24.2457051,16.4894414 23.9474365,16.8719287 C23.5188356,17.4232664 22.9839009,18.0469396 22.2707073,18.460487 L22.2707775,18.4604897 Z M24.4617962,23.6844367 C24.2937809,23.7809252 24.1257744,23.8601767 23.9543358,23.9187508 C23.1588506,24.1944197 22.3324676,24.0496958 21.6330551,23.873954 C21.163304,23.7533478 20.6867239,24.0393553 20.5667318,24.5148819 C20.4467222,24.9869681 20.7347471,25.4659174 21.2044893,25.586506 C21.7188139,25.7174509 22.329097,25.8380572 22.9874296,25.8380572 C23.4777469,25.8380572 23.9954684,25.7691399 24.523539,25.5899552 C24.8012763,25.4934667 25.0790049,25.3659709 25.3430226,25.2109083 C26.1762259,24.725043 26.7762566,24.0290166 27.2014517,23.4811192 C27.4997553,23.098632 27.4311834,22.5438451 27.0505882,22.2440938 C26.6665608,21.9443072 26.1179503,22.0097797 25.8196818,22.3957161 C25.4699404,22.8436758 25.0344841,23.350192 24.4618488,23.6844349 L24.4617962,23.6844367 Z M26.6528148,28.9049434 C26.5328052,28.9738597 26.4059401,29.0324391 26.279075,29.0772342 C25.685891,29.2805411 25.0824019,29.1771631 24.5166748,29.0358839 C24.0469237,28.9221672 23.5703436,29.2047344 23.4503515,29.680261 C23.333774,30.1523472 23.6183668,30.6312965 24.0915411,30.7518851 C24.5132865,30.8587035 25.0173323,30.9586323 25.5625195,30.9586323 C25.9739774,30.9586323 26.4060103,30.9034986 26.8482869,30.7484359 C27.081442,30.6691818 27.3111738,30.5623572 27.5340501,30.4314123 C28.2266686,30.0247985 28.7204532,29.4562061 29.0735828,29.0013746 C29.3718865,28.6154382 29.3033146,28.0641004 28.9227105,27.7643491 C28.5386832,27.4645626 27.9900727,27.530035 27.6918041,27.9159714 C27.4174989,28.2640023 27.0849005,28.6533878 26.6528675,28.904939 L26.6528148,28.9049434 Z M29.7250336,35.6553461 C30.2804996,35.331433 30.6679415,34.8800241 30.9422467,34.5251479 C31.2405504,34.1392115 31.1719785,33.5878737 30.7913745,33.2881224 C30.4073471,32.9883359 29.8587366,33.0572487 29.560468,33.4397359 C29.3684544,33.6843887 29.1352993,33.9600576 28.8438423,34.1289081 C28.7649793,34.1771506 28.6792591,34.2150553 28.6003997,34.2426248 C28.2095169,34.37701 27.7912036,34.3046498 27.4003032,34.2081657 C26.9305522,34.0910087 26.4539721,34.3770162 26.33398,34.8490936 C26.2139703,35.3211799 26.5019952,35.8001292 26.9717375,35.9207178 C27.3043359,36.0034184 27.698642,36.0826699 28.1306662,36.0826699 C28.4598325,36.0826699 28.8095739,36.0378739 29.1730261,35.9138194 C29.3581844,35.8449022 29.5433426,35.7587568 29.7250687,35.6553788 L29.7250336,35.6553461 Z M32.8109458,40.0488462 C33.1092494,39.6629098 33.0406775,39.1115721 32.6600735,38.8118208 C32.2760461,38.5120342 31.7274356,38.580947 31.4291671,38.9634431 C31.319445,39.1047267 31.1857245,39.2632296 31.0348522,39.3493795 C30.997135,39.3700551 30.9559892,39.3907298 30.921698,39.4045132 C30.7639703,39.459647 30.5788208,39.4493092 30.2805084,39.3735007 C29.8107573,39.2528945 29.3341772,39.5423512 29.2176084,40.0144286 C29.0975988,40.4865149 29.3856237,40.9654641 29.8553659,41.0826124 C30.0953852,41.1446383 30.3834014,41.1997694 30.7022801,41.1997694 C30.9491548,41.1997694 31.220028,41.1653104 31.4943332,41.0688245 C31.634918,41.0171364 31.7754939,40.9551078 31.9126465,40.8758563 C32.3275365,40.6346439 32.6121293,40.3072904 32.8109633,40.0488497 L32.8109458,40.0488462 Z M33.2944077,44.4870708 C33.2669771,44.5249755 33.2464038,44.5456502 33.2429752,44.555988 C33.2258314,44.5525424 33.2018294,44.5490959 33.1675417,44.5387589 C32.6977907,44.4147124 32.2212105,44.7041603 32.1012185,45.1762465 C31.9812088,45.6483327 32.2658016,46.127282 32.7355526,46.2478706 C32.8795607,46.2857744 33.0647189,46.3236791 33.2738756,46.3236791 C33.4384587,46.3236791 33.6167528,46.2995588 33.8053431,46.2340889 C33.9047777,46.2030755 34.0042122,46.1548339 34.1070789,46.0962545 C34.3813841,45.9343024 34.5665424,45.7172076 34.6831199,45.5690345 C34.9814236,45.1830981 34.9128517,44.6317604 34.5288243,44.3320091 C34.144797,44.0356628 33.5927631,44.1045845 33.2944946,44.4870717 L33.2944077,44.4870708 Z M8.58674624,27.9195926 L8.62103483,27.9195926 C9.77311689,27.9195926 11.1137454,27.58879 12.3481629,26.71009 C12.6259003,26.5136726 12.889918,26.1587522 13.1367927,25.8968624 C13.9117028,25.0767453 14.3574291,24.09809 14.6592088,23.3366264 C14.8375028,22.8852175 14.618063,22.3717413 14.1688914,22.1925786 C13.7197155,22.0133982 13.2087792,22.2373754 13.0270794,22.6887825 C12.766485,23.3434983 12.4270399,24.1016185 11.861304,24.6976808 C11.6967209,24.8734208 11.5184268,25.0457116 11.3332686,25.1766565 C10.4726348,25.7865772 9.44402958,25.9381907 8.54904836,25.9726471 C8.06558645,25.9898762 7.68841454,26.4619615 7.70555752,26.9512936 C7.72955944,27.4233798 8.11701539,27.9196191 8.58675765,27.9196191 L8.58674624,27.9195926 Z M11.919577,30.7865488 C11.9401503,31.2620754 12.3276027,31.4481541 12.7973538,31.4481541 L12.8316424,31.4481541 C13.7540102,31.4481541 14.9506834,31.4584919 16.0204299,30.700399 C16.2604492,30.5281081 16.490181,30.5143203 16.6993376,30.2937852 C17.3645257,29.5908252 17.7451209,28.7569202 17.9988862,28.1090764 C18.1771802,27.6576675 17.9577395,27.1407509 17.5085688,26.9615882 C17.0593929,26.7789586 16.5450332,26.9960472 16.3667568,27.4474534 C16.1576001,27.981563 15.8798628,28.5776517 15.4238489,29.0566539 C15.2935518,29.1944883 15.1495437,29.2944172 15.0021035,29.4012444 C14.3163404,29.8871097 13.5208552,29.9353539 12.7596471,29.9663611 C12.2796085,29.9835911 11.9024454,30.2971638 11.9195884,30.7864782 L11.919577,30.7865488 Z M20.8413004,31.7375843 C20.3921245,31.558404 19.8811881,31.7789347 19.6994883,32.2303391 C19.5383373,32.6403932 19.3257485,33.1021408 18.9794392,33.4708049 C18.883428,33.5707338 18.7805701,33.6568836 18.670848,33.7361351 C18.1565235,34.1013941 17.5496637,34.1565279 16.9701555,34.1806544 C16.4866936,34.1978844 16.1095217,34.5803699 16.1266646,35.0696755 C16.1438085,35.5452021 16.5346904,35.8622257 17.0010093,35.8622257 L17.035297,35.8622257 C17.7999196,35.8622257 18.7908507,35.7726355 19.6823208,35.1385971 C19.884622,34.9938732 20.080059,34.8801564 20.2549297,34.6940778 C20.8103956,34.1082836 21.122419,33.4225606 21.3316107,32.8884246 C21.5133369,32.4301263 21.2938944,31.9166588 20.8412934,31.7374961 L20.8413004,31.7375843 Z M24.1775545,36.5170208 C23.7283785,36.3343913 23.2174422,36.5583712 23.0357424,37.0132248 C22.9225882,37.2992323 22.775148,37.6334753 22.5385608,37.8815861 C22.4768426,37.9470577 22.4082637,38.0159714 22.3396917,38.0642156 C22.0002379,38.3054281 21.5819246,38.3709006 21.1773397,38.3881288 C20.6938778,38.4053578 20.3167059,38.8567658 20.3338489,39.3426046 C20.3578508,39.8215804 20.7453067,40.2695577 21.2116257,40.2695577 L21.2459134,40.2695577 C21.8493849,40.2695577 22.6345563,40.0765895 23.3511733,39.5665977 C23.5157564,39.4494406 23.670052,39.2357951 23.8106367,39.087622 C24.2529573,38.6189849 24.499832,38.0814527 24.6678385,37.6610246 C24.8495646,37.2096157 24.6301213,36.6961394 24.1775211,36.5169767 L24.1775545,36.5170208 Z M27.5138085,41.2964573 C27.0646326,41.117277 26.5502729,41.3446998 26.3719965,41.7961104 C26.3068488,41.9615118 26.2211242,42.1648187 26.1011233,42.2923144 C26.0736928,42.3233269 26.0428337,42.3750151 26.0085442,42.3991328 C25.878247,42.4921721 25.6965209,42.5886518 25.3879297,42.6024397 C24.9044678,42.6196688 24.5272959,43.1365492 24.5444388,43.6223704 C24.5650113,44.0978969 24.9524646,44.6802331 25.4222156,44.6802331 L25.4565034,44.6802331 C25.9022472,44.6802331 26.4817467,44.3838869 27.0165761,44.0013996 C27.1434412,43.9118094 27.2600187,43.6016842 27.3731729,43.4810779 C27.7057713,43.1295979 27.8840653,42.736772 28.004075,42.4335363 C28.1858011,41.9855766 27.9629292,41.47562 27.5137576,41.2963691 L27.5138085,41.2964573 Z M30.8500626,46.0586039 C30.4008867,45.8794235 29.8899503,46.093062 29.7116739,46.5479183 C29.6945291,46.5927143 29.6808139,46.6064977 29.6808139,46.6168346 C29.66367,46.6202812 29.6362395,46.5961599 29.5985223,46.5961599 C29.1150604,46.613389 28.7378885,46.9752068 28.7550315,47.4610721 C28.7721753,47.9365987 29.1630572,48.2088272 29.6293762,48.2088272 L29.6636639,48.2088272 C29.9242583,48.2088272 30.315141,48.2536232 30.6957538,47.9848429 C30.7814749,47.922817 30.8637691,47.9503839 30.9289089,47.8780246 C31.1517852,47.6437104 31.2717861,47.3818206 31.3403668,47.2026402 C31.5186608,46.7512314 31.299221,46.2377551 30.8500494,46.0585924 L30.8500626,46.0586039 Z M8.56243182,35.6034763 C8.08239324,35.5724629 7.66753837,35.9549563 7.64348729,36.4442619 C7.61605676,37.016277 7.55090817,37.6812873 7.28003502,38.2843185 C7.20117204,38.4566093 7.10859643,38.6220106 7.00229766,38.7701837 C6.51198032,39.4524664 5.7885079,39.8074044 5.08216091,40.0830733 C4.62956163,40.2588133 4.40668533,40.7687962 4.58155602,41.2236807 C4.71527654,41.5717116 5.04787495,41.7853572 5.40103967,41.7853572 C5.50732966,41.7853572 5.61362843,41.7681281 5.71991842,41.7267777 C6.58055224,41.3890856 7.66752959,40.8653147 8.43207319,39.800536 C8.60351177,39.5593236 8.75438405,39.2939934 8.88124913,39.0183245 C9.27898736,38.1361842 9.37156648,37.2229925 9.40242911,36.5269837 C9.41957297,36.0411184 9.04583228,35.6276416 8.56237038,35.603471 L8.56243182,35.6034763 Z M13.2633655,39.0252105 C12.786759,38.9976436 12.368472,39.3801309 12.344421,39.8659962 C12.3238485,40.3070663 12.2758446,40.8170317 12.0701157,41.2753918 C12.0118261,41.4028876 11.9398185,41.526943 11.8643824,41.6337613 C11.497498,42.1437443 10.9454378,42.4125237 10.403674,42.6227289 C9.95107472,42.7984689 9.72819841,43.3119011 9.90649244,43.7667767 C10.040213,44.1148076 10.3728114,44.3284532 10.7259761,44.3284532 C10.8322661,44.3284532 10.9385648,44.3112241 11.0448548,44.2698737 C11.7580485,43.9907557 12.6563653,43.5565839 13.2975812,42.6641136 C13.4415893,42.4608067 13.5684544,42.2402717 13.6747531,42.0093979 C14.0073515,41.2719815 14.0827789,40.520786 14.1067861,39.9488062 C14.1205014,39.4629409 13.7467572,39.0494641 13.2632953,39.0252934 L13.2633655,39.0252105 Z M17.9642992,42.4503851 C17.4705497,42.4055892 17.0694057,42.8053055 17.0453546,43.2911708 C17.0316394,43.601296 16.9973508,43.9596656 16.856773,44.2698173 C16.8190567,44.3525179 16.7744815,44.4283291 16.7230525,44.5041314 C16.4830332,44.8418236 16.0990059,45.0244531 15.7218603,45.1726262 C15.2692523,45.3483662 15.0463847,45.8583492 15.2212554,46.3132337 C15.3549759,46.6612645 15.6875743,46.8749101 16.0407391,46.8749101 C16.1470291,46.8749101 16.2533278,46.857681 16.3596178,46.8163307 C16.9253713,46.5957956 17.6351153,46.2512139 18.1460692,45.5379329 C18.2626467,45.3725316 18.3689455,45.1933512 18.4546604,45.0038233 C18.7221102,44.4180292 18.7769712,43.825372 18.8009697,43.3738926 C18.8249716,42.8845782 18.4512283,42.4711101 17.964343,42.4503798 L17.9642992,42.4503851 Z M22.6686561,45.8721194 C22.2229123,45.8548903 21.7737627,46.2235994 21.7497116,46.7129138 C21.7394249,46.8920942 21.7222811,47.0988503 21.6537004,47.2539129 C21.6365565,47.2918176 21.6159832,47.3297214 21.5885527,47.3676296 C21.4959735,47.4985745 21.3382458,47.6019437 21.0502297,47.7122113 C20.5976304,47.8879513 20.3747541,48.4013834 20.5530482,48.8562591 C20.6867687,49.20429 21.0193671,49.4179355 21.3725318,49.4179355 C21.4788218,49.4179355 21.5851206,49.4007056 21.6914106,49.3593561 C22.1063005,49.197404 22.6308951,48.9424037 23.0149224,48.4014399 C23.1040694,48.2773933 23.1795056,48.1429992 23.2515096,47.9948261 C23.4503787,47.5572051 23.4915289,47.1264736 23.5086719,46.7956445 C23.5258157,46.3063301 23.152075,45.892862 22.6686131,45.8721318 L22.6686561,45.8721194 Z"/>
  </g>
</svg>
